<svg xmlns="http://www.w3.org/2000/svg" fill="none" viewBox="0 0 200 200" height="400" width="400"><g id="social-media-discussion"><g id="Group"><g id="Group_2"><g id="Group_3"><path id="Vector" fill="#3d9cfb" d="M167.15 62.67C166.47 58.39 170.15 57.35 173.4 57.22C174.337 57.2642 175.267 57.3948 176.18 57.61C177.18 49.85 170.79 43.78 164.71 45.08C163.014 45.3887 161.463 46.2368 160.289 47.4981C159.114 48.7595 158.378 50.3665 158.19 52.08C158.19 52.08 151.52 47.65 145.41 52.97C139.04 58.5 142.41 68.6 149.49 71.97C157.13 75.56 163.8 75.64 167.44 76.3C171.08 76.96 173.32 76.78 173.9 73.73C174.11 72.59 174.35 70.59 174.58 68.29C172.5 67.17 167.63 65.66 167.15 62.67Z"></path><path id="Vector_2" fill="#3d9cfb" d="M28.08 55.83C24.64 55.83 25.17 49.7 24.38 48.58C23.59 47.46 18.56 49.9 16.83 49.16C14.83 48.3 14.11 45.35 11.83 41.43C9.55 37.51 5.67 31.55 6.57 27.82C7.94 22.16 21 17 25.06 15C35.06 10.1 42.06 7.35002 45.54 9.34002C49.02 11.33 49.54 15.19 52.22 21.16C53.66 24.37 56.9 30.08 55.22 32.97C53.54 35.86 34.77 43.6 33.5 44.75C32.23 45.9 30.6 55.86 28.08 55.83Z"></path><path id="Vector_3" fill="#3d9cfb" d="M120.56 191.23C118.82 190.55 120.23 185.79 119.47 184.74C118.59 183.54 114.83 183.02 115.01 181.35C115.19 179.68 119.28 179.19 120.49 177.43C121.24 176.35 120.8 171.91 122.43 171.43C124.76 170.73 127.27 175.17 128.2 175.23C129.29 175.31 133.45 172.86 134.53 174.38C135.86 176.26 131.64 180.25 131.53 181.38C131.4 182.82 134.92 187.27 132.73 188.75C130.91 189.98 125.73 185.4 124.57 186.18C123.7 186.72 122.13 191.85 120.56 191.23Z"></path><path id="Vector_4" fill="#3d9cfb" d="M149.33 181.52C146.4 181.75 147.7 173.69 146.94 172.65C146.06 171.44 141.15 172.41 141.41 169.58C141.61 167.37 146.48 166.58 147.69 164.87C148.45 163.79 147.25 156.93 149.58 155.8C151.91 154.67 153.68 161.14 154.58 161.21C155.68 161.29 160.08 157.21 161.16 158.71C162.49 160.59 159.88 164.01 159.78 165.13C159.64 166.56 164.96 171.61 162.78 173.13C160.96 174.36 155.32 171.52 154.11 172.31C153.27 172.84 151.19 181.38 149.33 181.52Z"></path><path id="Vector_5" fill="#3d9cfb" d="M175.81 162.62C173.11 163.77 172.41 154.89 171.36 154.14C170.14 153.28 166.36 155.23 165.48 153.27C164.84 151.9 169.16 147.94 169.75 145.88C170.11 144.61 167.87 138.8 169.75 136.98C171.63 135.16 175.5 140.51 176.41 140.28C177.47 140 180.67 134.97 182.19 136.07C184.05 137.43 182.28 143.18 182.54 144.27C182.87 145.67 189.43 145.69 189.19 147.27C188.63 150.87 180.32 150.54 179.43 151.67C178.75 152.47 177.53 161.89 175.81 162.62Z"></path><path id="Vector_6" fill="#001434" d="M27.4101 49.21C27.7301 52.02 27.4101 56.92 31.6201 57.21C34.6201 57.62 36.9501 49.21 38.6201 46.41C51.9201 39.91 68.3901 40.95 60.3501 24.75C56.0001 7.40002 52.2101 5.56002 31.6101 13.89C14.7301 19.62 5.1901 23.72 15.4801 40.72C18.3701 48.15 18.7801 51.16 27.4101 49.21ZM13.7001 26.57C16.3101 20.26 48.1601 9.10002 52.2501 12.22C54.6801 13.22 61.2501 32.64 59.5601 34.88C57.8701 37.12 40.3901 42.58 37.1201 44.4C35.5101 45.51 33.4001 53.62 31.5801 54.72C30.3701 54.54 30.1501 52.65 30.0001 50.39C30.5701 44.72 24.4701 47.57 21.4601 47.24C18.7301 42.8 12.9401 31.47 13.7001 26.57Z"></path><path id="Vector_7" fill="#001434" d="M26.0002 26.16C32.9502 27.35 33.5402 29.55 37.9002 22.42C42.3802 26.74 46.4702 20.3 51.0002 19.26C51.3204 19.1991 51.6042 19.0155 51.791 18.7484C51.9778 18.4812 52.0529 18.1517 52.0002 17.83C50.5602 15 46.0002 19 44.8402 19.76C39.2302 24.89 38.6702 14.57 33.4402 24.6C27.5402 25.77 23.5402 19.15 22.2302 30.24C21.1841 30.2955 20.1437 30.0528 19.2302 29.54C17.7702 28.86 16.7202 31.19 18.2302 31.8C26.1502 35.05 23.4102 30.31 26.0002 26.16Z"></path><path id="Vector_8" fill="#001434" d="M49.0002 26.16C48.7099 26.0434 48.3861 26.0408 48.0939 26.1528C47.8017 26.2648 47.5627 26.4832 47.4248 26.7641C47.2869 27.045 47.2602 27.3677 47.3503 27.6674C47.4403 27.9671 47.6403 28.2216 47.9102 28.38C48.0102 28.44 50.5802 29.81 50.5802 33.92C50.5802 34.2489 50.7109 34.5643 50.9434 34.7969C51.176 35.0294 51.4913 35.16 51.8202 35.16C52.1491 35.16 52.4645 35.0294 52.697 34.7969C52.9296 34.5643 53.0602 34.2489 53.0602 33.92C53.0002 28.2 49.1202 26.24 49.0002 26.16Z"></path><path id="Vector_9" fill="#001434" d="M35.3902 33.69C33.9802 34.82 33.9202 36.47 33.3902 37.69C28.1302 36.42 29.3302 35.78 25.4902 40.69C24.9986 40.1643 24.5599 39.5915 24.1802 38.98C23.9985 38.7055 23.7153 38.5144 23.3927 38.4488C23.0701 38.3832 22.7347 38.4484 22.4602 38.63C22.1857 38.8117 21.9946 39.095 21.929 39.4175C21.8633 39.7401 21.9285 40.0755 22.1102 40.35C25.1102 45.65 27.3102 42.64 29.8302 39.2C32.0802 40.61 35.8302 40.63 36.1102 37.3C36.2022 36.6478 36.4878 36.0381 36.9302 35.55C37.0994 35.3272 37.1882 35.0537 37.1823 34.7741C37.1764 34.4944 37.0761 34.2249 36.8977 34.0094C36.7193 33.7939 36.4733 33.6451 36.1996 33.5871C35.9259 33.5291 35.6407 33.5654 35.3902 33.69Z"></path><path id="Vector_10" fill="#001434" d="M42.85 30.36C43.19 28.62 40.29 28.54 39.97 29.58C39.06 30.93 41.21 32.86 42.21 31.24C42.377 31.1523 42.5216 31.0273 42.6326 30.8747C42.7436 30.7221 42.818 30.546 42.85 30.36Z"></path><path id="Vector_11" fill="#001434" d="M45.0901 35.51C44.9001 35.4003 44.6845 35.3425 44.4651 35.3425C44.2457 35.3425 44.0301 35.4003 43.8401 35.51C41.7401 35.16 41.9201 38.26 43.9701 38.15C45.0001 38.29 46.4601 36.35 45.0901 35.51Z"></path><path id="Vector_12" fill="#001434" d="M45.7801 30.83C45.5167 31.0338 45.2135 31.1803 44.8901 31.26C44.7273 31.26 44.5661 31.2921 44.4156 31.3544C44.2652 31.4168 44.1285 31.5081 44.0133 31.6232C43.8982 31.7384 43.8068 31.8751 43.7445 32.0255C43.6822 32.176 43.6501 32.3372 43.6501 32.5C43.6501 32.6629 43.6822 32.8241 43.7445 32.9746C43.8068 33.125 43.8982 33.2617 44.0133 33.3769C44.1285 33.492 44.2652 33.5833 44.4156 33.6457C44.5661 33.708 44.7273 33.7401 44.8901 33.7401C45.7162 33.6902 46.5092 33.398 47.1701 32.9C47.4446 32.7157 47.6347 32.4299 47.6984 32.1055C47.7622 31.781 47.6945 31.4445 47.5101 31.17C47.4189 31.0341 47.3017 30.9175 47.1654 30.8269C47.0291 30.7362 46.8762 30.6733 46.7156 30.6418C46.3911 30.578 46.0546 30.6457 45.7801 30.83Z"></path><path id="Vector_13" fill="#001434" d="M112 76C120.43 77 126 68.34 120.57 62.59C116 57.87 101.74 58.82 101.88 68C102 75.57 109.22 75.71 112 76ZM108.51 63C111.231 66.6794 114.753 69.6919 118.81 71.81C116.63 74.41 108.25 74.73 105.25 71.14C104.587 70.2263 104.271 69.1057 104.36 67.98C104.35 64.89 105.92 63.49 108.51 63Z"></path><path id="Vector_14" fill="#001434" d="M96.5702 75.93C97.5702 75.93 99.1802 75.81 98.9802 74.42C98.3102 72.3 94.3702 74.36 93.7402 72.02C92.5302 69.4 94.9802 66.72 97.8902 68.34C98.1904 68.4736 98.531 68.4846 98.8392 68.3706C99.1475 68.2566 99.399 68.0268 99.5402 67.73C99.6088 67.5824 99.6474 67.4227 99.6539 67.2601C99.6603 67.0974 99.6344 66.9351 99.5777 66.7826C99.5209 66.6301 99.4345 66.4903 99.3233 66.3714C99.2122 66.2525 99.0785 66.1569 98.9302 66.09C91.1602 62 86.8902 75.59 96.5702 75.93Z"></path><path id="Vector_15" fill="#001434" d="M89.0001 79.14C90.6301 82.4 100 83.73 101 79.44C101.15 78.77 99.9401 78.59 99.3301 78.9C96.4401 80.38 92.5801 79.82 91.0601 77.7C90.9656 77.5648 90.8453 77.4495 90.7062 77.3607C90.5671 77.2719 90.4118 77.2114 90.2493 77.1826C90.0868 77.1538 89.9203 77.1573 89.7591 77.1929C89.598 77.2285 89.4454 77.2955 89.3101 77.39C89.1749 77.4846 89.0596 77.6048 88.9708 77.744C88.882 77.8831 88.8215 78.0383 88.7927 78.2008C88.7639 78.3633 88.7674 78.5299 88.803 78.6911C88.8386 78.8522 88.9056 79.0048 89.0001 79.14Z"></path><path id="Vector_16" fill="#001434" d="M75.4401 56.3101C82.4401 54.1501 84.8301 57.9001 86.0301 56.1301C88.4101 52.6501 79.1501 51.6201 74.9601 53.7301C73.2801 54.5801 73.2701 57.0001 75.4401 56.3101Z"></path><path id="Vector_17" fill="#001434" d="M78.1801 75.06C86.5001 76.72 92.8001 68.57 87.8101 62.4C83.6801 57.28 69.3601 57.07 68.7501 66.21C68.2401 73.78 75.4401 74.51 78.1801 75.06ZM71.1801 66.44C71.4201 63.32 73.1001 62.05 75.7201 61.82C78.1361 65.7067 81.4011 68.9957 85.2701 71.44C82.8901 73.85 74.5101 73.44 71.8101 69.67C71.2374 68.6971 71.0284 67.5526 71.2201 66.44H71.1801Z"></path><path id="Vector_18" fill="#001434" d="M187.41 93.65C193.68 87.87 192.98 66.47 189.68 63.36C191.145 63.4485 192.615 63.3375 194.05 63.03C195.24 62.63 195.45 60.88 193.88 60.94C192.31 61 187.58 61 185.74 60.3C182.41 59.02 177.59 56.41 174.13 55.77C172.42 44.7 157 43.71 155.2 54.18C134.67 51.31 137.75 78.65 157.2 78.37C158.91 90.98 175.2 92.8 184.72 95.52C188.51 96.61 194.46 97.59 194.64 96.15C194.82 94.71 190.8 94.58 187.41 93.65ZM151.29 74.65C137.62 69.16 143.29 52.65 157.05 56.93C157.23 56.8077 157.375 56.6393 157.468 56.4423C157.561 56.2454 157.6 56.027 157.58 55.81C156.97 48.55 169.33 46.05 171.58 55.67C162.58 56.5 165.35 68.21 172.88 69.74C172.49 74.06 175.07 76.25 168.51 76.16C163.06 76.1 158.57 76.75 151.29 74.63V74.65ZM184.63 93C174.77 90.1 161.24 88.52 159.79 78.65C166.28 78.26 177.27 81.65 175.36 70.65C176.036 70.9127 176.732 71.1233 177.44 71.28C177.732 71.2775 178.013 71.1722 178.235 70.9825C178.457 70.7928 178.605 70.531 178.653 70.2431C178.7 69.9552 178.645 69.6597 178.497 69.4085C178.348 69.1573 178.115 68.9667 177.84 68.87C174.61 67.87 169.17 65.93 168.6 63.39C167.26 52.39 181.31 61.91 186.39 63.03C187.59 64.31 191.07 69.25 189.39 82.03C188.67 87 187 90.8 184.63 93Z"></path><path id="Vector_19" fill="#001434" d="M107.34 57.12C112.88 54.82 116.52 58.2 117.34 56.12C118.7 52.76 108.56 52.82 105.85 55.12C105.585 55.3176 105.409 55.6124 105.361 55.9397C105.313 56.267 105.398 56.5998 105.595 56.865C105.793 57.1302 106.088 57.3061 106.415 57.3539C106.742 57.4017 107.075 57.3176 107.34 57.12V57.12Z"></path><path id="Vector_20" fill="#001434" d="M41.7301 147.24C41.1715 147.185 40.6088 147.185 40.0501 147.24C37.2701 143.68 30.5701 138.73 25.9301 141.73C22.3201 144.05 25.1801 148.55 23.2901 151.57C18.9001 154.9 11.4001 157.19 5.83012 159.37C5.66972 159.422 5.52177 159.507 5.39547 159.619C5.26917 159.73 5.16721 159.867 5.09593 160.02C5.02466 160.173 4.98558 160.339 4.98114 160.507C4.9767 160.676 5.00698 160.844 5.07012 161C6.82012 163.09 9.44012 160.22 12.6701 159.52C11.0801 163.52 14.3401 180.03 20.5901 180.45C20.7144 180.344 20.8166 180.215 20.8909 180.07C20.9652 179.925 21.0101 179.767 21.0231 179.604C21.0361 179.441 21.0169 179.278 20.9667 179.123C20.9164 178.968 20.836 178.824 20.7301 178.7C15.4601 172.51 13.4001 164.23 15.6001 158.35C16.8401 157.84 18.0801 157.3 19.2401 156.77C15.8901 166.53 25.2401 181.94 33.3801 185.99C30.5301 188.07 29.1001 187.38 29.5501 189.68C30.7401 192.17 47.2101 180.06 51.3701 177.77C65.1701 167.75 52.6201 149 41.7301 147.24ZM35.7301 184.55C26.7301 179.96 18.0901 165.75 22.0701 155.33C28.5901 152.91 24.9701 147.26 27.2501 143.83C30.6501 142.1 35.0401 145.59 37.4301 148.05C26.5301 155.52 32.0001 177.3 45.7301 178.5C42.7601 180.36 38.9101 182.68 35.7601 184.55H35.7301ZM50.0001 175.66C48.4168 176.131 46.7454 176.226 45.1188 175.938C43.4922 175.65 41.9552 174.986 40.6301 174C42.2071 172.369 44.0167 170.981 46.0001 169.88C46.3037 169.754 46.5449 169.512 46.6705 169.209C46.7961 168.905 46.796 168.564 46.6701 168.26C44.3801 165.97 41.1801 170.57 38.7201 172.32C36.7465 170.302 35.3065 167.824 34.5301 165.11C36.1115 163.504 37.9333 162.155 39.9301 161.11C40.2337 160.984 40.4748 160.742 40.6005 160.439C40.7261 160.135 40.726 159.794 40.6001 159.49C38.8201 157.29 35.8801 160.99 34.0801 162.16C33.9201 133 67.0001 163.53 50.0001 175.66Z"></path><path id="Vector_21" fill="#001434" d="M162.81 110.85C164.81 107 163.61 100.24 158.92 100.53C158.28 94.82 151.46 95.16 147.49 98.98C146.571 99.5368 145.552 99.9072 144.49 100.07C144.356 100.085 144.221 100.073 144.092 100.035C143.963 99.9963 143.843 99.9322 143.739 99.8463C143.636 99.7604 143.55 99.6545 143.489 99.5348C143.427 99.4152 143.39 99.2843 143.38 99.15C142.8 93.27 141.74 88.03 137.59 84.65C134.8 82.38 130.59 81.73 125.84 81.12C127.466 79.1387 128.536 76.7608 128.94 74.23C130.551 73.7085 131.927 72.6377 132.828 71.2046C133.729 69.7716 134.098 68.0675 133.87 66.39C133.64 64.39 134.33 63.48 135.4 61.89C142.4 50.97 130.34 37.52 116.17 35.27C114.61 35.02 113.94 34.45 114.17 33.62C116.34 25.26 106.75 19.12 92.2701 20.9C81 22.28 76.0001 27.92 78.4801 34.2C78.546 34.3505 78.5781 34.5137 78.5739 34.6779C78.5697 34.8422 78.5295 35.0035 78.456 35.1505C78.3825 35.2975 78.2776 35.4265 78.1487 35.5284C78.0198 35.6302 77.87 35.7025 77.7101 35.74C66.5501 38.81 53.3201 47.47 56.1901 59.57C57.0601 63.23 59.2901 62.84 58.7801 65.89C58.427 67.5898 58.708 69.3599 59.5701 70.8668C60.4322 72.3736 61.8158 73.513 63.4601 74.07C63.6944 76.8301 64.7576 79.4548 66.5101 81.6C53.9101 82.78 50.0901 89.43 49.5101 99.03C49.4301 100.29 47.4601 99.82 45.5101 98.35C41.1701 95.15 34.8301 94.82 34.1801 100.53C29.4901 100.24 28.2601 107 30.3001 110.85C24.0501 115.19 32.3801 125.94 37.5401 126.85C41.6576 127.403 45.841 127.21 49.8901 126.28C40.8101 148.19 68.5601 151.14 82.5201 156.55C90.1301 158.62 89.0201 169.8 96.5201 164.66C104.08 169.56 102.82 158.66 110.46 156.56C125.54 150.74 151.46 148.16 142.25 126.05C145.15 126.84 151.56 127.66 155.64 126.85C160.73 125.94 169.06 115.19 162.81 110.85ZM95.3001 30.4C111.5 30.16 111.3 33.6 110.58 34.6C109.86 35.6 104 33.91 95.7101 34C86.9401 34.06 82.6001 35.81 81.7801 34.54C80.9601 33.27 81.5901 30.61 95.3001 30.4ZM66.0001 74.56C63.6201 60.4 70.0001 44.66 86.0001 47.61C89.0801 48.18 88.7601 51.89 90.3901 54.61C97.3901 64.68 105.73 49.09 99.9601 51.61C98.0601 52.43 97.0901 51.04 98.7201 48.61C100.57 45.86 107.89 46.73 112.43 47.41C124.1 48.89 129.32 61.91 126.33 74.88C123.61 92 69.3601 94.43 66.0001 74.56ZM111.63 89.22C110.54 106.22 82.4801 106.06 80.8601 89.22C90.4401 92.48 101.88 91.8 111.66 89.22H111.63ZM33.8401 121.61C35.4155 121.131 36.9615 120.56 38.4701 119.9C38.7543 119.752 38.9701 119.499 39.0722 119.195C39.1742 118.891 39.1547 118.56 39.0175 118.27C38.8804 117.98 38.6364 117.755 38.3367 117.641C38.037 117.527 37.7049 117.534 37.4101 117.66C35.7236 118.39 33.9896 119.005 32.2201 119.5C30.9601 117.36 29.2901 114.19 31.7901 112.87C33.0601 115.12 37.3001 114 34.7301 112.22C32.5101 110.67 30.9701 106.5 32.3101 104.11C33.9701 101.36 36.0701 103.87 36.3101 106.41C37.2001 116.62 49.4001 106.47 39.6801 103.3C38.1501 102.83 36.0801 101.85 36.7601 100.04C37.7601 97.47 41.4601 98.63 44.2701 100.41C48.7501 103.25 49.6701 102.74 50.8001 102.27C54.4301 100.76 49.7101 89.71 60.5501 85.83C69.3301 82.68 72.2301 92.39 72.8901 104.5C73.5301 116.41 62.3901 120.3 51.8901 123.18C50.5401 123.52 37.6001 127.22 33.8401 121.61ZM38.7201 105.61C40.1501 106.04 42.0701 106.96 40.4801 108.25C39.2001 109.29 38.7401 106.79 38.7201 105.6V105.61ZM85.4001 152.52C84.7801 153.67 84.1001 154.3 82.8701 153.8C73.3101 149.99 61.6101 148.49 53.3001 141.87C49.0501 137.17 57.0301 129.75 61.8801 128.28C70.1001 125.8 84.1201 131.28 86.2501 132.43C88.3801 133.58 86.0001 151.37 85.4001 152.52ZM95.2801 134.92C95.1101 138.27 94.9501 148.19 95.1701 154.35C95.3301 158.99 94.8901 164.48 92.6901 163.69C90.4901 162.9 89.8801 159.41 88.1601 157.32C87.9142 157.029 87.7349 156.687 87.6348 156.319C87.5346 155.951 87.5159 155.566 87.5801 155.19C88.6601 149.69 89.0501 137.11 89.0801 135.19C89.1501 131.54 95.3501 133.55 95.2801 134.92V134.92ZM94.8201 127.05C86.4801 127.05 76.9201 123.4 74.2901 120.98C73.2101 119.98 73.16 117.86 75.09 118.98C77.02 120.1 82.6501 124.4 96.3701 124.24C109.75 124.08 115.96 119.65 117.3 118.83C118.64 118.01 119.6 119.83 118.16 120.92C114.65 123.61 102.62 127.83 94.8201 127.05V127.05ZM101.55 161.48C94.7701 171.71 97.3401 138.15 97.7601 135.62C98.1301 133.38 102.95 132.29 103.05 133.53C103.27 136.25 101.89 153.53 104.92 156.93C103.511 158.212 102.366 159.758 101.55 161.48V161.48ZM137.8 143.12C130.37 148.59 117.34 150.19 108.67 154.55C107.1 155.34 106.09 155.29 106.03 154.28C105.6 151.34 103.87 134.58 105.58 132.74C106.58 131.74 115.76 128.26 124.52 127.46C134.84 126.55 141.76 139.74 137.8 143.12ZM160.86 119.5C159.094 119.003 157.364 118.388 155.68 117.66C155.383 117.518 155.042 117.5 154.731 117.61C154.421 117.719 154.167 117.948 154.025 118.245C153.883 118.542 153.865 118.883 153.975 119.194C154.084 119.504 154.313 119.758 154.61 119.9C156.119 120.558 157.665 121.129 159.24 121.61C157.3 124.79 149.31 125.11 139.43 122.61C133.43 121.07 126.85 118.19 124.27 116.46C116.99 112.53 118.62 84.39 132.27 85.95C140.89 86.95 140.62 97.82 141.12 99.86C142.05 103.68 145.12 103.48 149.12 100.86C151.39 99.35 153.3 98.25 154.9 98.8C159.82 101.98 151.9 103.19 150.34 105.21C147.53 109.3 153.61 113.33 156.18 108.93C157.12 107.31 156.4 105.58 157.4 104.01C157.573 103.713 157.823 103.469 158.125 103.304C158.426 103.139 158.767 103.06 159.111 103.076C159.454 103.091 159.786 103.201 160.072 103.392C160.357 103.583 160.585 103.849 160.73 104.16C162.07 106.55 160.73 110.96 158.31 112.27C156.44 114.79 160 115.17 161.31 112.92C163.8 114.19 162.13 117.36 160.86 119.5ZM154.37 105.6C154.37 106.79 153.99 109.14 152.6 108.24C151 107.19 152.93 106 154.37 105.6Z"></path></g></g></g></g></svg>