<svg class="gridItem__media" version="1.1" id="Layer_1" xmlns="http://www.w3.org/2000/svg" x="0px" y="0px" width="1600" height="1200" viewBox="0 0 1600 1200" style="baseline-shift: 0px; clip-rule: nonzero; color: rgb(61, 61, 61); color-interpolation: srgb; color-interpolation-filters: linearrgb; color-rendering: auto; cursor: auto; direction: ltr; display: block; fill: none; fill-opacity: 1; fill-rule: nonzero; font: 400 16px / 18.4px Lato, sans-serif; image-rendering: auto; letter-spacing: normal; marker: none; overflow: hidden; paint-order: normal; pointer-events: auto; shape-rendering: auto; stroke: none; stroke-dasharray: none; stroke-dashoffset: 0px; stroke-linecap: butt; stroke-linejoin: miter; stroke-miterlimit: 4; stroke-opacity: 1; stroke-width: 1px; text-anchor: start; text-decoration: none solid rgb(61, 61, 61); text-rendering: auto; visibility: visible; word-spacing: 0px; writing-mode: horizontal-tb;" fill="none" xmlns:xlink="http://www.w3.org/1999/xlink">
<path d="M229.4 604.2L321.6 1007.3H1329L1371.6 674C1372.5 666.8 1372 659.4 1370.1 652.4L1281.5 332C1275.7 311 1258 295.4 1236.5 292.2L561.9 193.2C542.4 190.3 522.9 198.1 510.7 213.6L239.8 557.9C229.5 571 225.7 588 229.4 604.2Z" fill="#F4F4F4" style="baseline-shift: 0px; fill: rgb(244, 244, 244); paint-order: normal; text-decoration: none solid rgb(61, 61, 61);"></path>
<path d="M1032.1 348.8V639.2L1365 634.2L1286.2 348.8H1032.1Z" fill="#EAEAEA" style="baseline-shift: 0px; fill: rgb(234, 234, 234); paint-order: normal; text-decoration: none solid rgb(61, 61, 61);"></path>
<path d="M921.7 727.4H579.2C572.9 727.4 567.8 722.3 567.8 716V516.8H921.7C928 516.8 933.1 521.9 933.1 528.2V716C933.1 722.3 928 727.4 921.7 727.4Z" fill="#B2B6BB" style="baseline-shift: 0px; fill: rgb(178, 182, 187); paint-order: normal; text-decoration: none solid rgb(61, 61, 61);"></path>
<path d="M577.8 727.4H525.6C519.3 727.4 514.2 722.3 514.2 716V528.1C514.2 521.8 519.3 516.7 525.6 516.7H577.8C584.1 516.7 589.2 521.8 589.2 528.1V716C589.2 722.3 584.1 727.4 577.8 727.4Z" fill="#868A91" style="baseline-shift: 0px; fill: rgb(134, 138, 145); paint-order: normal; text-decoration: none solid rgb(61, 61, 61);"></path>
<path d="M926.2 1006.8H1094.6V688.3C1094.6 682 1089.5 676.9 1083.2 676.9H937.6C931.3 676.9 926.2 682 926.2 688.3V1006.8Z" fill="#868A91" style="baseline-shift: 0px; fill: rgb(134, 138, 145); paint-order: normal; text-decoration: none solid rgb(61, 61, 61);"></path>
<path d="M1057 1006.8H1132V688.3C1132 682 1126.9 676.9 1120.6 676.9H1068.4C1062.1 676.9 1057 682 1057 688.3V1006.8Z" fill="#B2B6BB" style="baseline-shift: 0px; fill: rgb(178, 182, 187); paint-order: normal; text-decoration: none solid rgb(61, 61, 61);"></path>
<path d="M1057.63 861.727V786.727H678.734V861.727H1057.63Z" fill="#B2B6BB" style="baseline-shift: 0px; fill: rgb(178, 182, 187); paint-order: normal; text-decoration: none solid rgb(61, 61, 61);"></path>
<path opacity="0.2" d="M696.668 861.692V786.692H686.068V861.692H696.668Z" fill="black" style="baseline-shift: 0px; fill: rgb(0, 0, 0); opacity: 0.2; paint-order: normal; text-decoration: none solid rgb(61, 61, 61);"></path>
<path d="M1101.4 957.8L1105 963.4C1109.7 970.8 1116.9 976.4 1125.2 979.1L1170.7 995.2C1174.8 996.5 1174.3 1002.5 1170 1002.5H1164.3C1163.6 1003.5 1162.4 1004.1 1161.1 1004.1C1159.9 1004.1 1158.5 1003.5 1157.6 1002.7C1157.5 1002.6 1157.4 1002.6 1157.3 1002.5H1156.5C1156.4 1002.6 1156.2 1002.6 1156.1 1002.8C1155.4 1003.6 1154.3 1004.2 1153.1 1004.2C1152 1004.2 1150.7 1003.7 1149.8 1003C1149.4 1002.6 1148.7 1002.7 1148.4 1003.1C1147.8 1003.8 1147 1004.2 1146 1004.2C1145.1 1004.2 1144 1003.8 1143.2 1003.2C1142.8 1002.9 1142.2 1003 1141.9 1003.3C1141.3 1003.8 1140.6 1004.2 1139.7 1004.2C1138.5 1004.2 1137.5 1003.5 1137 1002.6H1136.6L1080.3 1001.7C1074.9 1001.6 1070.9 999.9 1068.6 995.7L1057 974.9L1101.4 957.8Z" fill="#FC9D9D" style="baseline-shift: 0px; fill: rgb(252, 157, 157); paint-order: normal; text-decoration: none solid rgb(61, 61, 61);"></path>
<path opacity="0.15" d="M1057 974.8L1101.2 957.7L1075.1 975.1C1073.5 976.2 1073 978.3 1073.9 979.9L1080.1 991.3C1082.2 995 1085.6 996.8 1090.2 997.2C1091.2 997.3 1092.2 997.2 1093.1 997C1099.3 995.6 1105.7 995 1112.1 995.3C1121.8 988.6 1127.9 980 1127.9 980L1136.2 982.1L1146 1000.4L1136.4 1000.5L1142.8 1002.8C1142.5 1002.7 1142.1 1002.8 1141.8 1003.1C1141.2 1003.6 1140.5 1004 1139.6 1004C1138.4 1004 1137.4 1003.3 1136.9 1002.4H1136.5L1080.2 1001.5C1074.8 1001.4 1070.8 999.7 1068.5 995.5L1057 974.8Z" fill="black" style="baseline-shift: 0px; fill: rgb(0, 0, 0); opacity: 0.15; paint-order: normal; text-decoration: none solid rgb(61, 61, 61);"></path>
<path d="M854.2 711.9L834.2 574.1C832.1 559.9 821.6 548.4 807.7 545.1L754.2 532.4L700.3 532.9L650.5 544.8C632.8 549 621.3 566.1 624 584.1L629.8 622.3L639.6 643.5C640.1 644.7 640.4 645.9 640.7 647.1L649.8 696.8C651.4 705.6 659.1 711.9 668 711.9H854.2Z" class="change-color-in-svg" fill="#4D61FC" style="fill: rgb(77, 97, 252); baseline-shift: 0px; paint-order: normal; text-decoration: none solid rgb(61, 61, 61);"></path>
<path d="M823.2 573.2C822.5 573.2 821.8 572.7 821.7 571.9L821 567.1C820.9 566.3 821.4 565.5 822.3 565.4C823.1 565.3 823.9 565.8 824 566.7L824.7 571.5C824.8 572.3 824.3 573.1 823.4 573.2C823.4 573.2 823.3 573.2 823.2 573.2Z" fill="white" style="baseline-shift: 0px; fill: rgb(255, 255, 255); paint-order: normal; text-decoration: none solid rgb(61, 61, 61);"></path>
<path d="M765.3 628C764.5 628 763.9 627.4 763.8 626.6L763.3 621.7C763.2 620.9 763.8 620.1 764.7 620.1C765.5 620 766.3 620.6 766.3 621.5L766.8 626.4C766.9 627.2 766.3 628 765.4 628H765.3Z" fill="white" style="baseline-shift: 0px; fill: rgb(255, 255, 255); paint-order: normal; text-decoration: none solid rgb(61, 61, 61);"></path>
<path d="M684.6 571.8C683.8 571.8 683.2 571.2 683.1 570.4L682.6 565.5C682.5 564.7 683.1 563.9 684 563.9C684.8 563.8 685.6 564.4 685.6 565.3L686.1 570.2C686.2 571 685.6 571.8 684.7 571.8C684.7 571.7 684.6 571.8 684.6 571.8Z" fill="white" style="baseline-shift: 0px; fill: rgb(255, 255, 255); paint-order: normal; text-decoration: none solid rgb(61, 61, 61);"></path>
<path d="M640.5 561.8C639.9 561.4 639.7 560.5 640 559.8L642.4 555.5C642.8 554.8 643.7 554.5 644.4 554.9C645.1 555.3 645.4 556.2 645 556.9L642.6 561.2C642.2 561.9 641.3 562.2 640.6 561.8C640.5 561.9 640.5 561.9 640.5 561.8Z" fill="white" style="baseline-shift: 0px; fill: rgb(255, 255, 255); paint-order: normal; text-decoration: none solid rgb(61, 61, 61);"></path>
<path d="M718.5 639C718.2 639 717.8 638.9 717.6 638.7C717 638.2 716.9 637.2 717.4 636.6L720.5 632.8C721 632.2 722 632.1 722.6 632.6C723.2 633.1 723.3 634.1 722.8 634.7L719.7 638.5C719.3 638.8 718.9 639 718.5 639Z" fill="white" style="baseline-shift: 0px; fill: rgb(255, 255, 255); paint-order: normal; text-decoration: none solid rgb(61, 61, 61);"></path>
<path d="M788.1 551.9C787.8 551.9 787.4 551.8 787.1 551.5C786.5 551 786.4 550 786.9 549.4L789.8 545.9C790.3 545.3 791.3 545.2 791.9 545.7C792.5 546.2 792.6 547.2 792.1 547.8L789.2 551.3C788.9 551.7 788.5 551.9 788.1 551.9Z" fill="white" style="baseline-shift: 0px; fill: rgb(255, 255, 255); paint-order: normal; text-decoration: none solid rgb(61, 61, 61);"></path>
<path d="M719.1 594.2C718.6 594.2 718.1 593.9 717.8 593.5L715.4 589.6C715 588.9 715.2 588 715.9 587.5C716.6 587.1 717.5 587.3 718 588L720.4 591.9C720.8 592.6 720.6 593.5 719.9 594C719.6 594.1 719.3 594.2 719.1 594.2Z" fill="white" style="baseline-shift: 0px; fill: rgb(255, 255, 255); paint-order: normal; text-decoration: none solid rgb(61, 61, 61);"></path>
<path d="M664.7 602C664.6 602 664.5 602 664.4 602L660 600.9C659.2 600.7 658.7 599.9 658.9 599.1C659.1 598.3 659.9 597.8 660.7 598L665.1 599.1C665.9 599.3 666.4 600.1 666.2 600.9C666 601.6 665.3 602 664.7 602Z" fill="white" style="baseline-shift: 0px; fill: rgb(255, 255, 255); paint-order: normal; text-decoration: none solid rgb(61, 61, 61);"></path>
<path d="M797.5 654.6C797.2 654.6 796.8 654.5 796.5 654.2C795.9 653.7 795.8 652.7 796.3 652.1L799.2 648.6C799.7 648 800.7 647.9 801.3 648.4C801.9 648.9 802 649.9 801.5 650.5L798.6 654C798.4 654.5 797.9 654.6 797.5 654.6Z" fill="white" style="baseline-shift: 0px; fill: rgb(255, 255, 255); paint-order: normal; text-decoration: none solid rgb(61, 61, 61);"></path>
<path d="M788.1 596.4C788 596.4 787.8 596.4 787.7 596.3L782.8 594.8C782 594.6 781.6 593.7 781.8 592.9C782 592.1 782.9 591.7 783.7 591.9L788.6 593.4C789.4 593.6 789.8 594.5 789.6 595.3C789.4 596 788.8 596.4 788.1 596.4Z" fill="white" style="baseline-shift: 0px; fill: rgb(255, 255, 255); paint-order: normal; text-decoration: none solid rgb(61, 61, 61);"></path>
<path d="M825.9 632C825.8 631.9 825.7 631.8 825.6 631.7L822.7 627.4C822.2 626.7 822.4 625.8 823.1 625.3C823.8 624.8 824.7 625 825.2 625.7L828.1 630C828.6 630.7 828.4 631.6 827.7 632.1C827.1 632.5 826.4 632.4 825.9 632Z" fill="white" style="baseline-shift: 0px; fill: rgb(255, 255, 255); paint-order: normal; text-decoration: none solid rgb(61, 61, 61);"></path>
<path d="M1056.4 872.7C1056.1 872.7 1055.8 872.5 1055.8 872.2V737.9C1055.8 737.6 1056.1 737.4 1056.4 737.4C1056.7 737.4 1057 737.6 1057 737.9V872.2C1057 872.5 1056.7 872.7 1056.4 872.7Z" fill="#868A91" style="baseline-shift: 0px; fill: rgb(134, 138, 145); paint-order: normal; text-decoration: none solid rgb(61, 61, 61);"></path>
<path d="M756 569.3C755.9 569.3 755.7 569.3 755.6 569.2L750.7 567.7C749.9 567.5 749.5 566.6 749.7 565.8C749.9 565 750.8 564.6 751.6 564.8L756.5 566.3C757.3 566.5 757.7 567.4 757.5 568.2C757.2 568.9 756.6 569.3 756 569.3Z" fill="white" style="baseline-shift: 0px; fill: rgb(255, 255, 255); paint-order: normal; text-decoration: none solid rgb(61, 61, 61);"></path>
<path d="M751.8 668.8C751.7 668.8 751.5 668.8 751.4 668.7L746.5 667.2C745.7 667 745.3 666.1 745.5 665.3C745.7 664.5 746.6 664.1 747.4 664.3L752.3 665.8C753.1 666 753.5 666.9 753.3 667.7C753 668.4 752.4 668.8 751.8 668.8Z" fill="white" style="baseline-shift: 0px; fill: rgb(255, 255, 255); paint-order: normal; text-decoration: none solid rgb(61, 61, 61);"></path>
<path opacity="0.2" d="M687.7 665.3L679.8 587.6C679.7 586.6 681.1 586.3 681.4 587.3L706 668L687.7 665.3Z" fill="black" style="baseline-shift: 0px; fill: rgb(0, 0, 0); opacity: 0.2; paint-order: normal; text-decoration: none solid rgb(61, 61, 61);"></path>
<path opacity="0.2" d="M798.6 696.5L798.7 696.4L798.9 696.6L798.6 696.5Z" fill="black" style="baseline-shift: 0px; fill: rgb(0, 0, 0); opacity: 0.2; paint-order: normal; text-decoration: none solid rgb(61, 61, 61);"></path>
<path d="M834.6 701.2C833.6 702.4 831.8 702.7 830.5 701.7L812.8 688.7L835.3 699C835.4 699.8 835.1 700.6 834.6 701.2Z" fill="#868A91" style="baseline-shift: 0px; fill: rgb(134, 138, 145); paint-order: normal; text-decoration: none solid rgb(61, 61, 61);"></path>
<path d="M1101.3 957.8L1057 974.9L950.6 786.7H764.9V711.9H978.3C991.5 711.9 1003.4 719.9 1008.4 732.1L1101.3 957.8Z" fill="#3F4249" style="baseline-shift: 0px; fill: rgb(63, 66, 73); paint-order: normal; text-decoration: none solid rgb(61, 61, 61);"></path>
<path opacity="0.2" d="M1078.4 966.6L1057 974.9L950.6 786.7H764.9V711.9H941.5C954.7 711.9 966.6 719.9 971.6 732.1L1078.4 966.6Z" fill="black" style="baseline-shift: 0px; fill: rgb(0, 0, 0); opacity: 0.2; paint-order: normal; text-decoration: none solid rgb(61, 61, 61);"></path>
<path d="M989.5 957.8L945.1 974.9L838.8 786.7H653.1V711.9H866.5C879.7 711.9 891.6 719.9 896.6 732.1L989.5 957.8Z" fill="#3F4249" style="baseline-shift: 0px; fill: rgb(63, 66, 73); paint-order: normal; text-decoration: none solid rgb(61, 61, 61);"></path>
<path opacity="0.2" d="M867.5 770.8C860 756.2 851.7 751.9 835.3 751.9H707.8L712.1 711.9H686V786.7H696.6H838.7L945.1 974.9L965 967.2L867.5 770.8Z" fill="black" style="baseline-shift: 0px; fill: rgb(0, 0, 0); opacity: 0.2; paint-order: normal; text-decoration: none solid rgb(61, 61, 61);"></path>
<path d="M989.5 957.8L993.1 963.4C997.8 970.8 1005 976.4 1013.3 979.1L1058.8 995.2C1062.9 996.5 1062.4 1002.5 1058.1 1002.5H1052.4C1051.7 1003.5 1050.5 1004.1 1049.2 1004.1C1048 1004.1 1046.6 1003.5 1045.7 1002.7C1045.6 1002.6 1045.5 1002.6 1045.4 1002.5H1044.6C1044.5 1002.6 1044.3 1002.6 1044.2 1002.8C1043.5 1003.6 1042.4 1004.2 1041.2 1004.2C1040.1 1004.2 1038.8 1003.7 1037.9 1003C1037.5 1002.6 1036.8 1002.7 1036.5 1003.1C1035.9 1003.8 1035.1 1004.2 1034.1 1004.2C1033.2 1004.2 1032.1 1003.8 1031.3 1003.2C1030.9 1002.9 1030.3 1003 1030 1003.3C1029.4 1003.8 1028.7 1004.2 1027.8 1004.2C1026.6 1004.2 1025.6 1003.5 1025.1 1002.6H1024.7L968.4 1001.7C963 1001.6 959 999.9 956.7 995.7L945.1 974.9L989.5 957.8Z" fill="#FC9D9D" style="baseline-shift: 0px; fill: rgb(252, 157, 157); paint-order: normal; text-decoration: none solid rgb(61, 61, 61);"></path>
<path opacity="0.15" d="M959.6 969.3L989.5 957.8L965.2 979.4L970 988C972.3 992.2 976.3 993.9 981.7 994L1038 994.9H1038.4C1038.9 995.9 1040 996.5 1041.1 996.5C1041.9 996.5 1042.7 996.2 1043.3 995.6C1043.7 995.3 1044.2 995.2 1044.6 995.5C1045.4 996.1 1046.5 996.5 1047.4 996.5C1048.4 996.5 1049.2 996.1 1049.8 995.4C1050.2 995 1050.8 995 1051.2 995.3C1052.1 996.1 1053.4 996.5 1054.5 996.5C1055.7 996.5 1056.8 996 1057.5 995.1C1057.6 995 1057.7 994.9 1057.9 994.8H1058L1058.9 995.1C1059.2 995.2 1059.4 995.3 1059.6 995.4C1059.7 995.5 1059.9 995.6 1060 995.7C1062.8 997.7 1062 1002.5 1058.2 1002.5H1052.5C1051.8 1003.5 1050.6 1004.1 1049.3 1004.1C1048.1 1004.1 1046.7 1003.5 1045.8 1002.7C1045.7 1002.6 1045.6 1002.6 1045.5 1002.5H1044.7C1044.6 1002.6 1044.4 1002.6 1044.3 1002.8C1043.6 1003.6 1042.5 1004.2 1041.3 1004.2C1040.2 1004.2 1038.9 1003.7 1038 1003C1037.6 1002.6 1036.9 1002.7 1036.6 1003.1C1036 1003.8 1035.2 1004.2 1034.2 1004.2C1033.3 1004.2 1032.2 1003.8 1031.4 1003.2C1031 1002.9 1030.4 1003 1030.1 1003.3C1029.5 1003.8 1028.8 1004.2 1027.9 1004.2C1026.7 1004.2 1025.7 1003.5 1025.2 1002.6H1024.8L968.5 1001.7C963.1 1001.6 959.1 999.9 956.8 995.7L945.2 974.9L959.6 969.3Z" fill="black" style="baseline-shift: 0px; fill: rgb(0, 0, 0); opacity: 0.15; paint-order: normal; text-decoration: none solid rgb(61, 61, 61);"></path>
<path opacity="0.15" d="M1016.1 980.1C1016.1 980.1 1007.3 995.6 990.8 1001.2H1007.5L1016.1 980.1Z" fill="black" style="baseline-shift: 0px; fill: rgb(0, 0, 0); opacity: 0.15; paint-order: normal; text-decoration: none solid rgb(61, 61, 61);"></path>
<path d="M477.1 1006.8H634.1C640.4 1006.8 645.5 1001.7 645.5 995.4V688.3C645.5 682 640.4 676.9 634.1 676.9H488.5C482.2 676.9 477.1 682 477.1 688.3V1006.8Z" fill="#868A91" style="baseline-shift: 0px; fill: rgb(134, 138, 145); paint-order: normal; text-decoration: none solid rgb(61, 61, 61);"></path>
<path opacity="0.4" d="M393.6 512.1H381.3V560.3V1000.4H384.8V517H393.6V512.1Z" fill="black" style="baseline-shift: 0px; fill: rgb(0, 0, 0); opacity: 0.4; paint-order: normal; text-decoration: none solid rgb(61, 61, 61);"></path>
<path d="M362.9 512.1H411.9C416.4 512.1 420.1 508.4 420.1 503.9V478.4H354.8V503.9C354.8 508.4 358.4 512.1 362.9 512.1Z" fill="#61656D" style="baseline-shift: 0px; fill: rgb(97, 101, 109); paint-order: normal; text-decoration: none solid rgb(61, 61, 61);"></path>
<path d="M381.253 1000.34H393.553V512.038H381.253V1000.34Z" fill="#61656D" style="baseline-shift: 0px; fill: rgb(97, 101, 109); paint-order: normal; text-decoration: none solid rgb(61, 61, 61);"></path>
<path d="M393.6 512.1H381.3V989H384.7V516.7H393.6V512.1Z" fill="#21252B" style="baseline-shift: 0px; fill: rgb(33, 37, 43); paint-order: normal; text-decoration: none solid rgb(61, 61, 61);"></path>
<path d="M363 503.9V497.4H354.8V503.9C354.8 508.4 358.5 512.1 363 512.1H371.2C366.6 512.1 363 508.4 363 503.9Z" fill="#21252B" style="baseline-shift: 0px; fill: rgb(33, 37, 43); paint-order: normal; text-decoration: none solid rgb(61, 61, 61);"></path>
<path d="M321.6 1006.3C319.3 1006.3 318.5 1003.1 320.6 1002.1C340 992.7 362.9 987.2 387.4 987.2C411.9 987.2 434.8 992.6 454.2 1002.1C456.3 1003.1 455.6 1006.3 453.2 1006.3H321.6Z" fill="#61656D" style="baseline-shift: 0px; fill: rgb(97, 101, 109); paint-order: normal; text-decoration: none solid rgb(61, 61, 61);"></path>
<path d="M395 987.4C392.5 987.3 390 987.2 387.5 987.2C363 987.2 340.1 992.6 320.7 1002.1C318.6 1003.1 319.3 1006.3 321.7 1006.3H344C349.9 998.3 371.7 988.9 395 987.4Z" fill="#21252B" style="baseline-shift: 0px; fill: rgb(33, 37, 43); paint-order: normal; text-decoration: none solid rgb(61, 61, 61);"></path>
<path d="M1358.5 1007.3H276.3C276 1007.3 275.8 1007.1 275.8 1006.8C275.8 1006.5 276 1006.3 276.3 1006.3H1358.5C1358.8 1006.3 1359 1006.5 1359 1006.8C1359 1007.1 1358.8 1007.3 1358.5 1007.3Z" fill="#B2B6BB" style="baseline-shift: 0px; fill: rgb(178, 182, 187); paint-order: normal; text-decoration: none solid rgb(61, 61, 61);"></path>
<path d="M439.3 668.5C439 668.5 438.8 668.3 438.8 668V498C438.8 497.7 439 497.5 439.3 497.5C439.6 497.5 439.8 497.7 439.8 498V668C439.8 668.3 439.5 668.5 439.3 668.5Z" fill="#21252B" style="baseline-shift: 0px; fill: rgb(33, 37, 43); paint-order: normal; text-decoration: none solid rgb(61, 61, 61);"></path>
<path d="M631.3 678.2H518.9C518.6 678.2 518.4 677.9 518.4 677.5C518.4 677.1 518.6 676.8 518.9 676.8H631.4C631.7 676.8 631.9 677.1 631.9 677.5C631.9 677.9 631.6 678.2 631.3 678.2Z" fill="#B2B6BB" style="baseline-shift: 0px; fill: rgb(178, 182, 187); paint-order: normal; text-decoration: none solid rgb(61, 61, 61);"></path>
<path opacity="0.2" d="M1114.2 355.1L1223 632.9H1257.3L1146.6 355.1H1114.2Z" fill="white" style="baseline-shift: 0px; fill: rgb(255, 255, 255); opacity: 0.2; paint-order: normal; text-decoration: none solid rgb(61, 61, 61);"></path>
<path opacity="0.2" d="M1162 355.1L1270.9 632.9H1282.3L1171.6 355.1H1162Z" fill="white" style="baseline-shift: 0px; fill: rgb(255, 255, 255); opacity: 0.2; paint-order: normal; text-decoration: none solid rgb(61, 61, 61);"></path>
<path d="M1364.6 632.9H1206.4V355.1H1287.9L1284.4 342.5H1025.7V645.5H1368L1364.6 632.9ZM1038.4 355.1H1193.8V632.9H1038.4V355.1Z" fill="white" style="baseline-shift: 0px; fill: rgb(255, 255, 255); paint-order: normal; text-decoration: none solid rgb(61, 61, 61);"></path>
<path d="M592.6 677H566.8C562.8 677 559.6 673.8 559.6 669.8V627.4H599.9V669.8C599.8 673.8 596.6 677 592.6 677Z" fill="#21252B" style="baseline-shift: 0px; fill: rgb(33, 37, 43); paint-order: normal; text-decoration: none solid rgb(61, 61, 61);"></path>
<path d="M606.1 662.5H599.8V659.4H606.1C607.7 659.4 609 658.1 609 656.5V639.2C609 637.6 607.7 636.3 606.1 636.3H599.8V633.2H606.1C609.4 633.2 612 635.9 612 639.1V656.4C612.1 659.8 609.4 662.5 606.1 662.5Z" fill="#21252B" style="baseline-shift: 0px; fill: rgb(33, 37, 43); paint-order: normal; text-decoration: none solid rgb(61, 61, 61);"></path>
<path opacity="0.6" d="M602.6 636.3V633.2H599.8V627.3H591V669C591 672.6 588.1 675.5 584.5 675.5H562.2C563.4 676.5 565 677.1 566.7 677.1H592.5C596.5 677.1 599.7 673.9 599.7 669.9V662.6H602.5V659.5H599.7V636.4H602.6V636.3Z" fill="black" style="baseline-shift: 0px; fill: rgb(0, 0, 0); opacity: 0.6; paint-order: normal; text-decoration: none solid rgb(61, 61, 61);"></path>
<path d="M573.3 624.3C573 624.3 572.8 624.1 572.8 623.8C572.8 620 569.7 616.8 565.8 616.8H562.4C559.4 616.8 557 614.4 557 611.4C557 608.4 559.4 606 562.4 606H581.6C584 606 586 604 586 601.6C586 599.2 584 597.2 581.6 597.2H577C573.9 597.2 571.5 594.7 571.5 591.7C571.5 591.4 571.7 591.2 572 591.2C572.3 591.2 572.5 591.4 572.5 591.7C572.5 594.2 574.5 596.2 577 596.2H581.6C584.6 596.2 587 598.6 587 601.6C587 604.6 584.6 607 581.6 607H562.4C560 607 558 609 558 611.4C558 613.8 560 615.8 562.4 615.8H565.8C570.2 615.8 573.8 619.4 573.8 623.8C573.8 624.1 573.6 624.3 573.3 624.3Z" fill="white" style="baseline-shift: 0px; fill: rgb(255, 255, 255); paint-order: normal; text-decoration: none solid rgb(61, 61, 61);"></path>
<path d="M584.4 627.4C584.1 627.4 583.9 627.2 583.9 626.9V625.7C583.9 624.8 583.2 624.1 582.3 624.1C580.8 624.1 579.7 622.9 579.7 621.5V619.4C579.7 617.9 580.9 616.8 582.3 616.8H585.5C589.8 616.8 593.4 613.3 593.4 608.9V605C593.4 604.7 593.6 604.5 593.9 604.5C594.2 604.5 594.4 604.7 594.4 605V608.8C594.4 613.7 590.4 617.7 585.5 617.7H582.3C581.4 617.7 580.7 618.4 580.7 619.3V621.4C580.7 622.3 581.4 623 582.3 623C583.8 623 584.9 624.2 584.9 625.6V626.8C584.9 627.1 584.7 627.4 584.4 627.4Z" fill="white" style="baseline-shift: 0px; fill: rgb(255, 255, 255); paint-order: normal; text-decoration: none solid rgb(61, 61, 61);"></path>
<path opacity="0.6" d="M745.9 644.2C747.004 644.2 747.9 643.305 747.9 642.2C747.9 641.096 747.004 640.2 745.9 640.2C744.795 640.2 743.9 641.096 743.9 642.2C743.9 643.305 744.795 644.2 745.9 644.2Z" fill="black" style="baseline-shift: 0px; fill: rgb(0, 0, 0); opacity: 0.6; paint-order: normal; text-decoration: none solid rgb(61, 61, 61);"></path>
<path opacity="0.6" d="M829.3 608.3C830.404 608.3 831.3 607.405 831.3 606.3C831.3 605.196 830.404 604.3 829.3 604.3C828.195 604.3 827.3 605.196 827.3 606.3C827.3 607.405 828.195 608.3 829.3 608.3Z" fill="black" style="baseline-shift: 0px; fill: rgb(0, 0, 0); opacity: 0.6; paint-order: normal; text-decoration: none solid rgb(61, 61, 61);"></path>
<path opacity="0.6" d="M790.7 570C791.805 570 792.7 569.105 792.7 568C792.7 566.895 791.805 566 790.7 566C789.596 566 788.7 566.895 788.7 568C788.7 569.105 789.596 570 790.7 570Z" fill="black" style="baseline-shift: 0px; fill: rgb(0, 0, 0); opacity: 0.6; paint-order: normal; text-decoration: none solid rgb(61, 61, 61);"></path>
<path opacity="0.6" d="M748.5 597.4C749.605 597.4 750.5 596.505 750.5 595.4C750.5 594.296 749.605 593.4 748.5 593.4C747.395 593.4 746.5 594.296 746.5 595.4C746.5 596.505 747.395 597.4 748.5 597.4Z" fill="black" style="baseline-shift: 0px; fill: rgb(0, 0, 0); opacity: 0.6; paint-order: normal; text-decoration: none solid rgb(61, 61, 61);"></path>
<path opacity="0.6" d="M799 670C800.105 670 801 669.105 801 668C801 666.895 800.105 666 799 666C797.895 666 797 666.895 797 668C797 669.105 797.895 670 799 670Z" fill="black" style="baseline-shift: 0px; fill: rgb(0, 0, 0); opacity: 0.6; paint-order: normal; text-decoration: none solid rgb(61, 61, 61);"></path>
<path opacity="0.6" d="M791.6 625.5C792.705 625.5 793.6 624.605 793.6 623.5C793.6 622.395 792.705 621.5 791.6 621.5C790.496 621.5 789.6 622.395 789.6 623.5C789.6 624.605 790.496 625.5 791.6 625.5Z" fill="black" style="baseline-shift: 0px; fill: rgb(0, 0, 0); opacity: 0.6; paint-order: normal; text-decoration: none solid rgb(61, 61, 61);"></path>
<path opacity="0.6" d="M713.2 558.5C714.305 558.5 715.2 557.605 715.2 556.5C715.2 555.395 714.305 554.5 713.2 554.5C712.096 554.5 711.2 555.395 711.2 556.5C711.2 557.605 712.096 558.5 713.2 558.5Z" fill="black" style="baseline-shift: 0px; fill: rgb(0, 0, 0); opacity: 0.6; paint-order: normal; text-decoration: none solid rgb(61, 61, 61);"></path>
<path opacity="0.6" d="M665.6 552.6C666.705 552.6 667.6 551.705 667.6 550.6C667.6 549.496 666.705 548.6 665.6 548.6C664.496 548.6 663.6 549.496 663.6 550.6C663.6 551.705 664.496 552.6 665.6 552.6Z" fill="black" style="baseline-shift: 0px; fill: rgb(0, 0, 0); opacity: 0.6; paint-order: normal; text-decoration: none solid rgb(61, 61, 61);"></path>
<path opacity="0.6" d="M702.2 609.4C703.305 609.4 704.2 608.505 704.2 607.4C704.2 606.296 703.305 605.4 702.2 605.4C701.096 605.4 700.2 606.296 700.2 607.4C700.2 608.505 701.096 609.4 702.2 609.4Z" fill="black" style="baseline-shift: 0px; fill: rgb(0, 0, 0); opacity: 0.6; paint-order: normal; text-decoration: none solid rgb(61, 61, 61);"></path>
<path opacity="0.6" d="M704.2 662.7C705.305 662.7 706.2 661.805 706.2 660.7C706.2 659.596 705.305 658.7 704.2 658.7C703.096 658.7 702.2 659.596 702.2 660.7C702.2 661.805 703.096 662.7 704.2 662.7Z" fill="black" style="baseline-shift: 0px; fill: rgb(0, 0, 0); opacity: 0.6; paint-order: normal; text-decoration: none solid rgb(61, 61, 61);"></path>
<path opacity="0.6" d="M638.3 588.3C639.404 588.3 640.3 587.405 640.3 586.3C640.3 585.196 639.404 584.3 638.3 584.3C637.195 584.3 636.3 585.196 636.3 586.3C636.3 587.405 637.195 588.3 638.3 588.3Z" fill="black" style="baseline-shift: 0px; fill: rgb(0, 0, 0); opacity: 0.6; paint-order: normal; text-decoration: none solid rgb(61, 61, 61);"></path>
<path d="M1172.7 1006.8H1069.5C1068 1006.8 1066.7 1005.6 1066.7 1004C1066.7 1002.5 1067.9 1001.2 1069.5 1001.2H1175.4V1004C1175.4 1005.5 1174.2 1006.8 1172.7 1006.8Z" class="change-color-in-svg" fill="#4D61FC" style="fill: rgb(77, 97, 252); baseline-shift: 0px; paint-order: normal; text-decoration: none solid rgb(61, 61, 61);"></path>
<path d="M1175.4 1001.2C1175.2 995.3 1171.4 990.2 1165.8 988.2L1131.6 976.3C1130.1 975.8 1128.6 976.6 1128.2 978.1C1126.7 983.1 1123 993.8 1115.7 1001.2H1069.5C1068 1001.2 1066.7 1002.4 1066.7 1004C1066.7 1005.6 1067.9 1006.8 1069.5 1006.8H1172.7C1174.2 1006.8 1175.4 1005.6 1175.4 1004.1V1001.2Z" class="change-color-in-svg" fill="#4D61FC" style="fill: rgb(77, 97, 252); baseline-shift: 0px; paint-order: normal; text-decoration: none solid rgb(61, 61, 61);"></path>
<path d="M1175.4 1001.2C1175.2 995.3 1171.4 990.2 1165.8 988.2L1131.6 976.3C1130.1 975.8 1128.6 976.6 1128.2 978.1C1126.7 983.1 1123 993.8 1115.7 1001.2H1069.5C1068 1001.2 1066.7 1002.4 1066.7 1004C1066.7 1005.6 1067.9 1006.8 1069.5 1006.8H1172.7C1174.2 1006.8 1175.4 1005.6 1175.4 1004.1V1001.2Z" fill="#21252B" style="baseline-shift: 0px; fill: rgb(33, 37, 43); paint-order: normal; text-decoration: none solid rgb(61, 61, 61);"></path>
<path opacity="0.4" d="M1175.4 1001.2C1175.2 996.5 1172.8 992.3 1169 989.8C1173.9 993.3 1173 996.8 1166 996.5C1129.9 994.8 1125.2 994.8 1121 994.4C1121.1 994.3 1121.1 994.2 1121.1 994.1C1119.5 996.6 1117.7 999.1 1115.6 1001.2H1069.4C1067.9 1001.2 1066.6 1002.4 1066.6 1004C1066.6 1005.6 1067.8 1006.8 1069.4 1006.8H1172.6C1174.1 1006.8 1175.3 1005.6 1175.3 1004.1V1001.2H1175.4Z" fill="black" style="baseline-shift: 0px; fill: rgb(0, 0, 0); opacity: 0.4; paint-order: normal; text-decoration: none solid rgb(61, 61, 61);"></path>
<path opacity="0.4" d="M1175.3 1000.3H1116.5L1115.6 1001.2H1175.3V1000.3Z" fill="black" style="baseline-shift: 0px; fill: rgb(0, 0, 0); opacity: 0.4; paint-order: normal; text-decoration: none solid rgb(61, 61, 61);"></path>
<path d="M1061.2 1006.8H958C956.5 1006.8 955.2 1005.6 955.2 1004C955.2 1002.5 956.4 1001.2 958 1001.2H1063.9V1004C1063.9 1005.5 1062.7 1006.8 1061.2 1006.8Z" class="change-color-in-svg" fill="#4D61FC" style="fill: rgb(77, 97, 252); baseline-shift: 0px; paint-order: normal; text-decoration: none solid rgb(61, 61, 61);"></path>
<path d="M1063.9 1001.2C1063.7 995.3 1059.9 990.2 1054.3 988.2L1020.1 976.3C1018.6 975.8 1017.1 976.6 1016.7 978.1C1015.2 983.1 1011.5 993.8 1004.2 1001.2H958C956.5 1001.2 955.2 1002.4 955.2 1004C955.2 1005.6 956.4 1006.8 958 1006.8H1061.2C1062.7 1006.8 1063.9 1005.6 1063.9 1004.1V1001.2Z" class="change-color-in-svg" fill="#4D61FC" style="fill: rgb(77, 97, 252); baseline-shift: 0px; paint-order: normal; text-decoration: none solid rgb(61, 61, 61);"></path>
<path d="M1063.9 1001.2C1063.7 995.3 1059.9 990.2 1054.3 988.2L1020.1 976.3C1018.6 975.8 1017.1 976.6 1016.7 978.1C1015.2 983.1 1011.5 993.8 1004.2 1001.2H958C956.5 1001.2 955.2 1002.4 955.2 1004C955.2 1005.6 956.4 1006.8 958 1006.8H1061.2C1062.7 1006.8 1063.9 1005.6 1063.9 1004.1V1001.2Z" fill="#21252B" style="baseline-shift: 0px; fill: rgb(33, 37, 43); paint-order: normal; text-decoration: none solid rgb(61, 61, 61);"></path>
<path opacity="0.4" d="M1063.9 1001.2C1063.7 996.5 1061.3 992.3 1057.5 989.8C1062.4 993.3 1061.5 996.8 1054.5 996.5C1018.4 994.8 1013.7 994.8 1009.5 994.4C1009.6 994.3 1009.6 994.2 1009.6 994.1C1008 996.6 1006.2 999.1 1004.1 1001.2H958C956.5 1001.2 955.2 1002.4 955.2 1004C955.2 1005.6 956.4 1006.8 958 1006.8H1061.2C1062.7 1006.8 1063.9 1005.6 1063.9 1004.1V1001.2Z" fill="black" style="baseline-shift: 0px; fill: rgb(0, 0, 0); opacity: 0.4; paint-order: normal; text-decoration: none solid rgb(61, 61, 61);"></path>
<path opacity="0.4" d="M1063.9 1000.3H1005L1004.2 1001.2H1063.9V1000.3Z" fill="black" style="baseline-shift: 0px; fill: rgb(0, 0, 0); opacity: 0.4; paint-order: normal; text-decoration: none solid rgb(61, 61, 61);"></path>
<path d="M701.5 303.7C701.5 280.4 683.9 261.2 661.2 258.7V258.4H656.2C631.2 258.4 610.9 278.7 610.9 303.7C610.9 328.7 631.2 349 656.2 349H661.2V348.7C683.9 346.2 701.5 327 701.5 303.7Z" fill="#B2B6BB" style="baseline-shift: 0px; fill: rgb(178, 182, 187); paint-order: normal; text-decoration: none solid rgb(61, 61, 61);"></path>
<path d="M661.2 349C686.218 349 706.5 328.719 706.5 303.7C706.5 278.682 686.218 258.4 661.2 258.4C636.181 258.4 615.9 278.682 615.9 303.7C615.9 328.719 636.181 349 661.2 349Z" fill="#868A91" style="baseline-shift: 0px; fill: rgb(134, 138, 145); paint-order: normal; text-decoration: none solid rgb(61, 61, 61);"></path>
<path d="M661.2 344C683.457 344 701.5 325.957 701.5 303.7C701.5 281.443 683.457 263.4 661.2 263.4C638.943 263.4 620.9 281.443 620.9 303.7C620.9 325.957 638.943 344 661.2 344Z" fill="white" style="baseline-shift: 0px; fill: rgb(255, 255, 255); paint-order: normal; text-decoration: none solid rgb(61, 61, 61);"></path>
<path d="M661.2 344C683.457 344 701.5 325.957 701.5 303.7C701.5 281.443 683.457 263.4 661.2 263.4C638.943 263.4 620.9 281.443 620.9 303.7C620.9 325.957 638.943 344 661.2 344Z" fill="#868A91" style="baseline-shift: 0px; fill: rgb(134, 138, 145); paint-order: normal; text-decoration: none solid rgb(61, 61, 61);"></path>
<path opacity="0.9" d="M661.2 344C683.457 344 701.5 325.957 701.5 303.7C701.5 281.443 683.457 263.4 661.2 263.4C638.943 263.4 620.9 281.443 620.9 303.7C620.9 325.957 638.943 344 661.2 344Z" fill="white" style="baseline-shift: 0px; fill: rgb(255, 255, 255); opacity: 0.9; paint-order: normal; text-decoration: none solid rgb(61, 61, 61);"></path>
<path d="M661.2 263.4C660.5 263.4 659.8 263.4 659 263.5C680.2 264.6 697.1 282.2 697.1 303.7C697.1 325.2 680.2 342.8 659 343.9C659.7 343.9 660.4 344 661.2 344C683.5 344 701.5 326 701.5 303.7C701.5 281.4 683.5 263.4 661.2 263.4Z" fill="#B2B6BB" style="baseline-shift: 0px; fill: rgb(178, 182, 187); paint-order: normal; text-decoration: none solid rgb(61, 61, 61);"></path>
<path d="M661.6 306.8L648.2 280.2C647.7 279.2 648.1 277.9 649.1 277.4C650.1 276.9 651.4 277.3 651.9 278.3L663.4 301.2L678.7 293.7C679.7 293.2 681 293.6 681.5 294.7C682 295.7 681.6 297 680.5 297.5L661.6 306.8Z" class="change-color-in-svg" fill="#4D61FC" style="fill: rgb(77, 97, 252); baseline-shift: 0px; paint-order: normal; text-decoration: none solid rgb(61, 61, 61);"></path>
<path d="M1291.6 867.9L1245.7 917.7L1246 826.1H1244.8L1244.7 870.5L1205.9 831L1205.1 831.8L1244.7 872.2L1244.4 955.2H1245.6L1245.7 919.4L1292.4 868.7L1291.6 867.9Z" fill="#21252B" style="baseline-shift: 0px; fill: rgb(33, 37, 43); paint-order: normal; text-decoration: none solid rgb(61, 61, 61);"></path>
<path d="M1210.4 917.6L1209.6 918.4L1229.8 937.4L1233 955.3L1234.1 955.1L1221.4 883.5L1220.2 883.7L1229.5 935.5L1210.4 917.6Z" fill="#21252B" style="baseline-shift: 0px; fill: rgb(33, 37, 43); paint-order: normal; text-decoration: none solid rgb(61, 61, 61);"></path>
<path d="M1225.3 1006.8H1253.8C1259.1 1006.8 1263.5 1002.5 1263.5 997.1V959.4H1215.6V997.1C1215.6 1002.4 1219.9 1006.8 1225.3 1006.8Z" fill="#61656D" style="baseline-shift: 0px; fill: rgb(97, 101, 109); paint-order: normal; text-decoration: none solid rgb(61, 61, 61);"></path>
<path d="M1245.4 826.2C1261.86 826.2 1275.2 812.858 1275.2 796.4C1275.2 779.942 1261.86 766.6 1245.4 766.6C1228.94 766.6 1215.6 779.942 1215.6 796.4C1215.6 812.858 1228.94 826.2 1245.4 826.2Z" class="change-color-in-svg" fill="#4D61FC" style="fill: rgb(77, 97, 252); baseline-shift: 0px; paint-order: normal; text-decoration: none solid rgb(61, 61, 61);"></path>
<path d="M1218.7 886.5C1230.46 886.5 1240 876.964 1240 865.2C1240 853.437 1230.46 843.9 1218.7 843.9C1206.94 843.9 1197.4 853.437 1197.4 865.2C1197.4 876.964 1206.94 886.5 1218.7 886.5Z" class="change-color-in-svg" fill="#4D61FC" style="fill: rgb(77, 97, 252); baseline-shift: 0px; paint-order: normal; text-decoration: none solid rgb(61, 61, 61);"></path>
<g opacity="0.3" style="baseline-shift: 0px; opacity: 0.3; paint-order: normal; text-decoration: none solid rgb(61, 61, 61);">
<path opacity="0.3" d="M1218.7 886.5C1230.46 886.5 1240 876.964 1240 865.2C1240 853.437 1230.46 843.9 1218.7 843.9C1206.94 843.9 1197.4 853.437 1197.4 865.2C1197.4 876.964 1206.94 886.5 1218.7 886.5Z" fill="white" style="baseline-shift: 0px; fill: rgb(255, 255, 255); opacity: 0.3; paint-order: normal; text-decoration: none solid rgb(61, 61, 61);"></path>
</g>
<g opacity="0.3" style="baseline-shift: 0px; opacity: 0.3; paint-order: normal; text-decoration: none solid rgb(61, 61, 61);">
<path opacity="0.3" d="M1245.4 826.2C1261.86 826.2 1275.2 812.858 1275.2 796.4C1275.2 779.942 1261.86 766.6 1245.4 766.6C1228.94 766.6 1215.6 779.942 1215.6 796.4C1215.6 812.858 1228.94 826.2 1245.4 826.2Z" fill="white" style="baseline-shift: 0px; fill: rgb(255, 255, 255); opacity: 0.3; paint-order: normal; text-decoration: none solid rgb(61, 61, 61);"></path>
</g>
<path d="M1199.7 838.3C1206.71 838.3 1212.4 832.614 1212.4 825.6C1212.4 818.586 1206.71 812.9 1199.7 812.9C1192.69 812.9 1187 818.586 1187 825.6C1187 832.614 1192.69 838.3 1199.7 838.3Z" class="change-color-in-svg" fill="#4D61FC" style="fill: rgb(77, 97, 252); baseline-shift: 0px; paint-order: normal; text-decoration: none solid rgb(61, 61, 61);"></path>
<path d="M1199.4 923.2C1207.74 923.2 1214.5 916.439 1214.5 908.1C1214.5 899.76 1207.74 893 1199.4 893C1191.06 893 1184.3 899.76 1184.3 908.1C1184.3 916.439 1191.06 923.2 1199.4 923.2Z" class="change-color-in-svg" fill="#4D61FC" style="fill: rgb(77, 97, 252); baseline-shift: 0px; paint-order: normal; text-decoration: none solid rgb(61, 61, 61);"></path>
<path d="M1280.2 900.6C1290.86 900.6 1299.5 891.959 1299.5 881.3C1299.5 870.641 1290.86 862 1280.2 862C1269.54 862 1260.9 870.641 1260.9 881.3C1260.9 891.959 1269.54 900.6 1280.2 900.6Z" class="change-color-in-svg" fill="#4D61FC" style="fill: rgb(77, 97, 252); baseline-shift: 0px; paint-order: normal; text-decoration: none solid rgb(61, 61, 61);"></path>
<path d="M1264.5 954.3H1214.6C1213.2 954.3 1212.1 955.4 1212.1 956.8C1212.1 958.2 1213.2 959.3 1214.6 959.3H1264.5C1265.9 959.3 1267 958.2 1267 956.8C1267 955.4 1265.9 954.3 1264.5 954.3Z" fill="#61656D" style="baseline-shift: 0px; fill: rgb(97, 101, 109); paint-order: normal; text-decoration: none solid rgb(61, 61, 61);"></path>
<path d="M1215.6 796.4C1215.6 779.9 1229 766.6 1245.4 766.6V826.3C1228.9 826.2 1215.6 812.9 1215.6 796.4Z" class="change-color-in-svg" fill="#4D61FC" style="fill: rgb(77, 97, 252); baseline-shift: 0px; paint-order: normal; text-decoration: none solid rgb(61, 61, 61);"></path>
<path d="M1221.8 886.3C1210.3 888 1199.6 880.2 1197.6 868.7C1195.7 857.4 1203.1 846.6 1214.3 844.3L1221.8 886.3Z" class="change-color-in-svg" fill="#4D61FC" style="fill: rgb(77, 97, 252); baseline-shift: 0px; paint-order: normal; text-decoration: none solid rgb(61, 61, 61);"></path>
<path opacity="0.3" d="M1190.7 834.6C1185.7 829.7 1185.6 821.6 1190.6 816.6C1190.6 816.6 1190.7 816.5 1190.8 816.5L1208.6 834.7C1203.7 839.5 1195.7 839.5 1190.7 834.6Z" fill="black" style="baseline-shift: 0px; fill: rgb(0, 0, 0); opacity: 0.3; paint-order: normal; text-decoration: none solid rgb(61, 61, 61);"></path>
<path opacity="0.3" d="M1210.1 918.7C1204.2 924.7 1194.6 924.7 1188.7 918.8C1182.8 913 1182.7 903.5 1188.4 897.6L1210.4 918.3C1210.4 918.5 1210.3 918.6 1210.1 918.7Z" fill="black" style="baseline-shift: 0px; fill: rgb(0, 0, 0); opacity: 0.3; paint-order: normal; text-decoration: none solid rgb(61, 61, 61);"></path>
<path d="M1263.4 959.4H1219.8C1218.4 959.4 1217.3 958.3 1217.3 956.9C1217.3 955.5 1218.4 954.4 1219.8 954.4H1214.5C1213.1 954.4 1212 955.5 1212 956.9C1212 958.3 1213.1 959.4 1214.5 959.4H1215.5V960.2V997.1C1215.5 1002.4 1219.8 1006.8 1225.2 1006.8H1240.4C1240.6 1006.8 1240.7 1006.8 1240.7 1006.8C1233.9 1006.8 1228.1 1002 1226.8 995.4L1219.9 960.2H1263.3V959.4H1263.4Z" fill="#3F4249" style="baseline-shift: 0px; fill: rgb(63, 66, 73); paint-order: normal; text-decoration: none solid rgb(61, 61, 61);"></path>
<path opacity="0.3" d="M1293.3 867.1C1293.2 867 1293.1 867 1293.1 866.9L1267.1 895.4L1267.2 895.5C1275 902.7 1287.3 902.2 1294.5 894.4C1301.6 886.5 1301.1 874.3 1293.3 867.1Z" fill="black" style="baseline-shift: 0px; fill: rgb(0, 0, 0); opacity: 0.3; paint-order: normal; text-decoration: none solid rgb(61, 61, 61);"></path>
<path d="M1290.1 363.2H1038.4V358.6H1288.9L1290.1 363.2Z" fill="white" style="baseline-shift: 0px; fill: rgb(255, 255, 255); paint-order: normal; text-decoration: none solid rgb(61, 61, 61);"></path>
<path d="M1292.4 371.3H1038.4V366.7H1291.1L1292.4 371.3Z" fill="white" style="baseline-shift: 0px; fill: rgb(255, 255, 255); paint-order: normal; text-decoration: none solid rgb(61, 61, 61);"></path>
<path d="M1294.6 379.4H1038.4V374.8H1293.3L1294.6 379.4Z" fill="white" style="baseline-shift: 0px; fill: rgb(255, 255, 255); paint-order: normal; text-decoration: none solid rgb(61, 61, 61);"></path>
<path d="M1296.9 387.5H1038.4V382.9H1295.6L1296.9 387.5Z" fill="white" style="baseline-shift: 0px; fill: rgb(255, 255, 255); paint-order: normal; text-decoration: none solid rgb(61, 61, 61);"></path>
<path d="M1299.1 395.6H1038.4V391H1297.8L1299.1 395.6Z" fill="white" style="baseline-shift: 0px; fill: rgb(255, 255, 255); paint-order: normal; text-decoration: none solid rgb(61, 61, 61);"></path>
<path d="M1301.3 403.7H1038.4V399H1300L1301.3 403.7Z" fill="white" style="baseline-shift: 0px; fill: rgb(255, 255, 255); paint-order: normal; text-decoration: none solid rgb(61, 61, 61);"></path>
<path d="M1044.3 484.2H1044.1V355.2H1043V484.2H1042.8C1041.9 484.2 1041.1 484.9 1041.1 485.9V503.9C1041.1 504.8 1041.8 505.6 1042.8 505.6H1044.3C1045.2 505.6 1046 504.9 1046 503.9V485.9C1046 484.9 1045.3 484.2 1044.3 484.2Z" fill="white" style="baseline-shift: 0px; fill: rgb(255, 255, 255); paint-order: normal; text-decoration: none solid rgb(61, 61, 61);"></path>
<path opacity="0.2" d="M803.3 587.2L812.8 680.9L821.1 689.1L828.7 684.1L812.1 594.1C810.4 586.7 803.3 586.1 803.3 587.2Z" fill="black" style="baseline-shift: 0px; fill: rgb(0, 0, 0); opacity: 0.2; paint-order: normal; text-decoration: none solid rgb(61, 61, 61);"></path>
<path opacity="0.2" d="M1040.9 358.6H1038.4V363.2H1040.9V358.6Z" fill="black" style="baseline-shift: 0px; fill: rgb(0, 0, 0); opacity: 0.2; paint-order: normal; text-decoration: none solid rgb(61, 61, 61);"></path>
<path opacity="0.2" d="M1040.9 366.7H1038.4V371.3H1040.9V366.7Z" fill="black" style="baseline-shift: 0px; fill: rgb(0, 0, 0); opacity: 0.2; paint-order: normal; text-decoration: none solid rgb(61, 61, 61);"></path>
<path opacity="0.2" d="M1040.9 374.8H1038.4V379.4H1040.9V374.8Z" fill="black" style="baseline-shift: 0px; fill: rgb(0, 0, 0); opacity: 0.2; paint-order: normal; text-decoration: none solid rgb(61, 61, 61);"></path>
<path opacity="0.2" d="M1040.9 382.9H1038.4V387.5H1040.9V382.9Z" fill="black" style="baseline-shift: 0px; fill: rgb(0, 0, 0); opacity: 0.2; paint-order: normal; text-decoration: none solid rgb(61, 61, 61);"></path>
<path opacity="0.2" d="M1040.9 390.9H1038.4V395.5H1040.9V390.9Z" fill="black" style="baseline-shift: 0px; fill: rgb(0, 0, 0); opacity: 0.2; paint-order: normal; text-decoration: none solid rgb(61, 61, 61);"></path>
<path opacity="0.2" d="M1040.9 399H1038.4V403.6H1040.9V399Z" fill="black" style="baseline-shift: 0px; fill: rgb(0, 0, 0); opacity: 0.2; paint-order: normal; text-decoration: none solid rgb(61, 61, 61);"></path>
<path opacity="0.2" d="M1206.4 363.2H1193.8V365.2H1206.4V363.2Z" fill="black" style="baseline-shift: 0px; fill: rgb(0, 0, 0); opacity: 0.2; paint-order: normal; text-decoration: none solid rgb(61, 61, 61);"></path>
<path opacity="0.2" d="M1206.4 371.3H1193.8V373.3H1206.4V371.3Z" fill="black" style="baseline-shift: 0px; fill: rgb(0, 0, 0); opacity: 0.2; paint-order: normal; text-decoration: none solid rgb(61, 61, 61);"></path>
<path opacity="0.2" d="M1206.4 379.4H1193.8V381.4H1206.4V379.4Z" fill="black" style="baseline-shift: 0px; fill: rgb(0, 0, 0); opacity: 0.2; paint-order: normal; text-decoration: none solid rgb(61, 61, 61);"></path>
<path opacity="0.2" d="M1206.4 387.5H1193.8V389.5H1206.4V387.5Z" fill="black" style="baseline-shift: 0px; fill: rgb(0, 0, 0); opacity: 0.2; paint-order: normal; text-decoration: none solid rgb(61, 61, 61);"></path>
<path opacity="0.2" d="M1206.4 395.6H1193.8V397.6H1206.4V395.6Z" fill="black" style="baseline-shift: 0px; fill: rgb(0, 0, 0); opacity: 0.2; paint-order: normal; text-decoration: none solid rgb(61, 61, 61);"></path>
<path opacity="0.2" d="M1206.4 403.7H1193.8V405.7H1206.4V403.7Z" fill="black" style="baseline-shift: 0px; fill: rgb(0, 0, 0); opacity: 0.2; paint-order: normal; text-decoration: none solid rgb(61, 61, 61);"></path>
<path d="M345.5 360.2H430.3L477.5 494.9H297.3L345.5 360.2Z" class="change-color-in-svg" fill="#4D61FC" style="fill: rgb(77, 97, 252); baseline-shift: 0px; paint-order: normal; text-decoration: none solid rgb(61, 61, 61);"></path>
<path d="M345.5 360.2H372.3L353.8 494.9H297.3L345.5 360.2Z" class="change-color-in-svg" fill="#4D61FC" style="fill: rgb(77, 97, 252); baseline-shift: 0px; paint-order: normal; text-decoration: none solid rgb(61, 61, 61);"></path>
<path d="M345.439 360.231H430.339V354.131H345.439V360.231Z" class="change-color-in-svg" fill="#4D61FC" style="fill: rgb(77, 97, 252); baseline-shift: 0px; paint-order: normal; text-decoration: none solid rgb(61, 61, 61);"></path>
<path d="M297.353 500.932H477.553V494.832H297.353V500.932Z" class="change-color-in-svg" fill="#4D61FC" style="fill: rgb(77, 97, 252); baseline-shift: 0px; paint-order: normal; text-decoration: none solid rgb(61, 61, 61);"></path>
<path opacity="0.4" d="M345.5 360.2H430.3L477.5 494.9H297.3L345.5 360.2Z" fill="white" style="baseline-shift: 0px; fill: rgb(255, 255, 255); opacity: 0.4; paint-order: normal; text-decoration: none solid rgb(61, 61, 61);"></path>
<path opacity="0.4" d="M366.5 360.2H430.3L477.5 494.9H346.2L366.5 360.2Z" fill="white" style="baseline-shift: 0px; fill: rgb(255, 255, 255); opacity: 0.4; paint-order: normal; text-decoration: none solid rgb(61, 61, 61);"></path>
<path opacity="0.6" d="M700.2 532.9C700.2 532.9 699.2 537 702.4 539C706 541.1 719.9 550.4 739.5 544.5C739.5 544.5 745.7 542.8 751.6 538.5C752.9 537.5 753.9 536.1 754.1 534.4C754.1 534.2 754.1 534.1 754.1 533.9V532.5C754.1 532.5 754.1 532.5 759.6 533.8C759.6 535.5 759.1 538.7 756.3 541.5C754.7 543.1 731 561.4 700.8 544.5C700.8 544.5 694.2 541.9 694.9 534.2C700.2 532.9 700.2 532.9 700.2 532.9Z" fill="black" style="baseline-shift: 0px; fill: rgb(0, 0, 0); opacity: 0.6; paint-order: normal; text-decoration: none solid rgb(61, 61, 61);"></path>
<path opacity="0.5" d="M695.7 324.4C699.4 318.3 701.5 311.2 701.5 303.6C701.5 281.3 683.5 263.3 661.2 263.3C660.1 263.3 659 263.4 657.9 263.4L695.7 324.4Z" fill="white" style="baseline-shift: 0px; fill: rgb(255, 255, 255); opacity: 0.5; paint-order: normal; text-decoration: none solid rgb(61, 61, 61);"></path>
<path opacity="0.5" d="M651.8 264.5C649.8 265 647.9 265.6 646.1 266.3L687.8 333.9C689.4 332.5 690.9 330.901 692.3 329.201L651.8 264.5Z" fill="white" style="baseline-shift: 0px; fill: rgb(255, 255, 255); opacity: 0.5; paint-order: normal; text-decoration: none solid rgb(61, 61, 61);"></path>
<path d="M776 678.2L790.2 680.1L820.5 677.4C823.7 677.7 825.1 678.3 827.5 680.4L846.2 697.1C847.4 698.2 847.5 700 846.5 701.2C845.5 702.4 843.7 702.7 842.4 701.7L824.7 688.7L836.2 702.3C837.5 703.8 836.9 706.2 835 706.9C833.9 707.3 832.8 707 832 706.3L816.6 691.2L828.3 702.7C829.7 704.1 829.2 706.4 827.4 707.1C826.5 707.5 825.5 707.3 824.8 706.8L808.4 694.8L819.5 703C820.8 703.9 820.8 705.9 819.5 706.8C818.8 707.3 817.9 707.4 817.2 707.1L802.3 700.9C800.9 700.3 799.2 700.3 797.8 701L792.1 703.8C787.5 706.1 782.3 707.3 777.2 707.3H767.9C754.6 707.3 776 678.2 776 678.2Z" fill="#FC9D9D" style="baseline-shift: 0px; fill: rgb(252, 157, 157); paint-order: normal; text-decoration: none solid rgb(61, 61, 61);"></path>
<path opacity="0.15" d="M687.8 666.9L682.8 666.5C681.3 666.4 680.5 664.8 681.1 663.5L686.4 652.8L687.8 666.9Z" fill="black" style="baseline-shift: 0px; fill: rgb(0, 0, 0); opacity: 0.15; paint-order: normal; text-decoration: none solid rgb(61, 61, 61);"></path>
<path opacity="0.15" d="M819.5 703.5C819.4 703.5 819.3 703.5 819.2 703.4L809 695.9C808.8 695.7 808.7 695.4 808.9 695.2C809.1 695 809.4 694.9 809.6 695.1L819.8 702.6C820 702.8 820.1 703.1 819.9 703.3C819.8 703.4 819.6 703.5 819.5 703.5Z" fill="black" style="baseline-shift: 0px; fill: rgb(0, 0, 0); opacity: 0.15; paint-order: normal; text-decoration: none solid rgb(61, 61, 61);"></path>
<path opacity="0.15" d="M828.2 703.2C828.1 703.2 827.9 703.2 827.9 703.1L816.9 692.3C816.7 692.1 816.7 691.8 816.9 691.6C817.1 691.4 817.4 691.4 817.6 691.6L828.6 702.4C828.8 702.6 828.8 702.9 828.6 703.1C828.5 703.2 828.3 703.2 828.2 703.2Z" fill="black" style="baseline-shift: 0px; fill: rgb(0, 0, 0); opacity: 0.15; paint-order: normal; text-decoration: none solid rgb(61, 61, 61);"></path>
<path opacity="0.15" d="M805.6 699.1C809 700.8 814.7 703.7 816.7 704.8C819.5 706.4 820.3 704.3 820.3 704.3C820.5 705.2 820.2 706.2 819.4 706.8C818.7 707.3 817.8 707.4 817.1 707.1L802.2 700.9C800.8 700.3 799.1 700.3 797.7 701L800.6 699.3C802.2 698.4 804 698.4 805.6 699.1Z" fill="black" style="baseline-shift: 0px; fill: rgb(0, 0, 0); opacity: 0.15; paint-order: normal; text-decoration: none solid rgb(61, 61, 61);"></path>
<path d="M773.7 679.4L687.8 666.8L682.2 612.4L628.6 615.1L639.5 684.6C641.6 697.7 652.8 707.3 666 707.3H763.7L773.7 679.4Z" class="change-color-in-svg" fill="#4D61FC" style="fill: rgb(77, 97, 252); baseline-shift: 0px; paint-order: normal; text-decoration: none solid rgb(61, 61, 61);"></path>
<path d="M785.4 679.4L687.8 666.9L682.2 612.5L628.6 615.2L639.5 684.7C641.6 697.8 652.8 707.4 666 707.4H775.7L785.4 679.4Z" class="change-color-in-svg" fill="#4D61FC" style="fill: rgb(77, 97, 252); baseline-shift: 0px; paint-order: normal; text-decoration: none solid rgb(61, 61, 61);"></path>
<path d="M815.5 691.9L811.6 689.1L815.5 691.9Z" fill="#9A73EF" style="baseline-shift: 0px; fill: rgb(154, 115, 239); paint-order: normal; text-decoration: none solid rgb(61, 61, 61);"></path>
<path opacity="0.6" d="M660.7 627.5C661.805 627.5 662.7 626.605 662.7 625.5C662.7 624.395 661.805 623.5 660.7 623.5C659.596 623.5 658.7 624.395 658.7 625.5C658.7 626.605 659.596 627.5 660.7 627.5Z" fill="black" style="baseline-shift: 0px; fill: rgb(0, 0, 0); opacity: 0.6; paint-order: normal; text-decoration: none solid rgb(61, 61, 61);"></path>
<path opacity="0.6" d="M775.7 678.2L785.4 679.4L775.8 707.3H763.8L775.7 678.2Z" fill="black" style="baseline-shift: 0px; fill: rgb(0, 0, 0); opacity: 0.6; paint-order: normal; text-decoration: none solid rgb(61, 61, 61);"></path>
<g opacity="0.2" style="baseline-shift: 0px; opacity: 0.2; paint-order: normal; text-decoration: none solid rgb(61, 61, 61);">
<path opacity="0.2" d="M776.7 677.5C776.6 677.9 776.3 678.1 776 678.1H775.9L687.7 665.3L687.5 663.7L776.1 676.6C776.5 676.7 776.8 677.1 776.7 677.5Z" fill="black" style="baseline-shift: 0px; fill: rgb(0, 0, 0); opacity: 0.2; paint-order: normal; text-decoration: none solid rgb(61, 61, 61);"></path>
</g>
<path d="M679.6 641.6C678.8 641.6 678.2 641 678.1 640.2L677.6 635.3C677.5 634.5 678.1 633.7 679 633.7C679.8 633.6 680.6 634.2 680.6 635.1L681.1 640C681.2 640.8 680.6 641.6 679.7 641.6C679.7 641.6 679.7 641.6 679.6 641.6Z" fill="white" style="baseline-shift: 0px; fill: rgb(255, 255, 255); paint-order: normal; text-decoration: none solid rgb(61, 61, 61);"></path>
<path d="M642.3 657.9C642 657.9 641.6 657.8 641.3 657.5C640.7 657 640.6 656 641.1 655.4L644 651.9C644.5 651.3 645.5 651.2 646.1 651.7C646.7 652.2 646.8 653.2 646.3 653.8L643.4 657.3C643.1 657.7 642.7 657.9 642.3 657.9Z" fill="white" style="baseline-shift: 0px; fill: rgb(255, 255, 255); paint-order: normal; text-decoration: none solid rgb(61, 61, 61);"></path>
<path d="M686.8 691C686.7 691 686.5 691 686.4 690.9L681.5 689.4C680.7 689.2 680.3 688.3 680.5 687.5C680.7 686.7 681.6 686.3 682.4 686.5L687.3 688C688.1 688.2 688.5 689.1 688.3 689.9C688.1 690.6 687.5 691 686.8 691Z" fill="white" style="baseline-shift: 0px; fill: rgb(255, 255, 255); paint-order: normal; text-decoration: none solid rgb(61, 61, 61);"></path>
<path d="M729.5 692.5C729.2 692.5 728.8 692.4 728.6 692.2C728 691.7 727.9 690.7 728.4 690.1L731.5 686.3C732 685.7 733 685.6 733.6 686.1C734.2 686.6 734.3 687.6 733.8 688.2L730.7 692C730.3 692.3 729.9 692.5 729.5 692.5Z" fill="white" style="baseline-shift: 0px; fill: rgb(255, 255, 255); paint-order: normal; text-decoration: none solid rgb(61, 61, 61);"></path>
<path opacity="0.6" d="M709.6 681.4C710.705 681.4 711.6 680.505 711.6 679.4C711.6 678.296 710.705 677.4 709.6 677.4C708.496 677.4 707.6 678.296 707.6 679.4C707.6 680.505 708.496 681.4 709.6 681.4Z" fill="black" style="baseline-shift: 0px; fill: rgb(0, 0, 0); opacity: 0.6; paint-order: normal; text-decoration: none solid rgb(61, 61, 61);"></path>
<path opacity="0.6" d="M745.9 703.4C747.004 703.4 747.9 702.505 747.9 701.4C747.9 700.296 747.004 699.4 745.9 699.4C744.795 699.4 743.9 700.296 743.9 701.4C743.9 702.505 744.795 703.4 745.9 703.4Z" fill="black" style="baseline-shift: 0px; fill: rgb(0, 0, 0); opacity: 0.6; paint-order: normal; text-decoration: none solid rgb(61, 61, 61);"></path>
<path opacity="0.6" d="M667.1 664.7C668.205 664.7 669.1 663.805 669.1 662.7C669.1 661.596 668.205 660.7 667.1 660.7C665.996 660.7 665.1 661.596 665.1 662.7C665.1 663.805 665.996 664.7 667.1 664.7Z" fill="black" style="baseline-shift: 0px; fill: rgb(0, 0, 0); opacity: 0.6; paint-order: normal; text-decoration: none solid rgb(61, 61, 61);"></path>
<path opacity="0.15" d="M777.4 702.3L775.8 707.2H666.1C652.9 707.2 641.6 697.6 639.6 684.5L623.9 584C621.2 566 632.7 548.9 650.4 544.7L659.7 542.5C645.5 548.8 636.9 563.9 639.3 579.7L653.8 672.3C655.9 685.4 667.1 695 680.3 695L777.4 702.3Z" fill="black" style="baseline-shift: 0px; fill: rgb(0, 0, 0); opacity: 0.15; paint-order: normal; text-decoration: none solid rgb(61, 61, 61);"></path>
<path opacity="0.15" d="M787.1 702.4C784.8 702.4 783 700.3 783.2 698L785.4 679.4L775.7 707.3H777.1C782.3 707.3 787.4 706.1 792 703.8L798.8 700.6C797.2 700.8 793 702.4 787.1 702.4Z" fill="black" style="baseline-shift: 0px; fill: rgb(0, 0, 0); opacity: 0.15; paint-order: normal; text-decoration: none solid rgb(61, 61, 61);"></path>
<path d="M762.4 706.5H861C861.8 706.5 862.5 707.2 862.5 708V710.5C862.5 711.3 861.8 712 861 712H762.4C761.6 712 760.9 711.3 760.9 710.5V708C760.9 707.2 761.5 706.5 762.4 706.5Z" fill="#21252B" style="baseline-shift: 0px; fill: rgb(33, 37, 43); paint-order: normal; text-decoration: none solid rgb(61, 61, 61);"></path>
<path opacity="0.6" d="M762.4 706.5H861C861.8 706.5 862.5 707.2 862.5 708V710.5C862.5 711.3 861.8 712 861 712H762.4C761.6 712 760.9 711.3 760.9 710.5V708C760.9 707.2 761.5 706.5 762.4 706.5Z" fill="black" style="baseline-shift: 0px; fill: rgb(0, 0, 0); opacity: 0.6; paint-order: normal; text-decoration: none solid rgb(61, 61, 61);"></path>
<path d="M828.9 706.5H1000.8C1001.6 706.5 1002.3 707.2 1002.3 708V710.5C1002.3 711.3 1001.6 712 1000.8 712H828.9C828.1 712 827.4 711.3 827.4 710.5V708C827.5 707.2 828.1 706.5 828.9 706.5Z" fill="#21252B" style="baseline-shift: 0px; fill: rgb(33, 37, 43); paint-order: normal; text-decoration: none solid rgb(61, 61, 61);"></path>
<g opacity="0.6" style="baseline-shift: 0px; opacity: 0.6; paint-order: normal; text-decoration: none solid rgb(61, 61, 61);">
<path opacity="0.6" d="M998.6 707.5H823.6C823.3 707.5 823.1 707.3 823.1 707C823.1 706.7 823.3 706.5 823.6 706.5H998.6C998.9 706.5 999.1 706.7 999.1 707C999.1 707.3 998.8 707.5 998.6 707.5Z" fill="black" style="baseline-shift: 0px; fill: rgb(0, 0, 0); opacity: 0.6; paint-order: normal; text-decoration: none solid rgb(61, 61, 61);"></path>
</g>
<path d="M828.5 706.5H854.4C856.4 706.5 858.1 705.1 858.5 703.1L880.2 589C880.7 586.4 878.7 584.1 876.1 584.1H850.2C848.2 584.1 846.5 585.5 846.1 587.5L824.4 701.6C824 704.2 825.9 706.5 828.5 706.5Z" fill="#21252B" style="baseline-shift: 0px; fill: rgb(33, 37, 43); paint-order: normal; text-decoration: none solid rgb(61, 61, 61);"></path>
<path opacity="0.6" d="M828.5 706.5H854.4C856.4 706.5 858.1 705.1 858.5 703.1L880.2 589C880.7 586.4 878.7 584.1 876.1 584.1H850.2C848.2 584.1 846.5 585.5 846.1 587.5L824.4 701.6C824 704.2 825.9 706.5 828.5 706.5Z" fill="black" style="baseline-shift: 0px; fill: rgb(0, 0, 0); opacity: 0.6; paint-order: normal; text-decoration: none solid rgb(61, 61, 61);"></path>
<path d="M832.2 706.5H998.5C1000.5 706.5 1002.2 705.1 1002.6 703.1L1024.3 589C1024.8 586.4 1022.8 584.1 1020.2 584.1H854C852 584.1 850.3 585.5 849.9 587.5L828.2 701.6C827.7 704.2 829.6 706.5 832.2 706.5Z" fill="#21252B" style="baseline-shift: 0px; fill: rgb(33, 37, 43); paint-order: normal; text-decoration: none solid rgb(61, 61, 61);"></path>
<path opacity="0.6" d="M927.2 642.1C926.2 644.4 927.3 646.4 929.6 646.4C929.7 646.4 929.9 646.4 930 646.4C927.3 649.4 923.2 651.5 919.6 651.4C914.7 651.3 912.4 647.3 914.6 642.4C916.7 637.5 922.5 633.7 927.4 633.8C930.5 633.9 932.6 635.5 933.1 638C930.8 638.1 928.2 639.8 927.2 642.1Z" fill="black" style="baseline-shift: 0px; fill: rgb(0, 0, 0); opacity: 0.6; paint-order: normal; text-decoration: none solid rgb(61, 61, 61);"></path>
<path d="M758.6 473.4C758.6 473.4 712.8 439.8 708.3 476.4L707 486L700.2 532.901V533L700.1 534C699.9 535.4 700.3 536.701 701.1 537.701V537.8L701.2 537.901C701.5 538.301 701.9 538.7 702.4 539C706.1 541.3 708.5 542.5 711.5 543.6C725.1 548.8 740.8 546.8 752.8 537.6C753.7 536.5 754.2 535.1 754.1 533.6L753.3 509.2C754.1 506.7 754.6 503.9 754.9 500.8C756.4 486.4 758.6 473.4 758.6 473.4Z" fill="#FC9D9D" style="baseline-shift: 0px; fill: rgb(252, 157, 157); paint-order: normal; text-decoration: none solid rgb(61, 61, 61);"></path>
<path d="M763.8 476C772.802 476 780.1 468.703 780.1 459.7C780.1 450.698 772.802 443.4 763.8 443.4C754.798 443.4 747.5 450.698 747.5 459.7C747.5 468.703 754.798 476 763.8 476Z" fill="#21252B" style="baseline-shift: 0px; fill: rgb(33, 37, 43); paint-order: normal; text-decoration: none solid rgb(61, 61, 61);"></path>
<path d="M765.9 447.9C765.9 447.9 777.7 520.6 740.6 522.7C708.5 524.6 708.7 474.9 708.7 474.9L712.6 442.9L765.9 447.9Z" fill="#FC9D9D" style="baseline-shift: 0px; fill: rgb(252, 157, 157); paint-order: normal; text-decoration: none solid rgb(61, 61, 61);"></path>
<path d="M763.5 452.2H730.9C726.8 452.2 723.5 455.5 723.5 459.6C723.5 463.7 720.2 467 716.1 467C715 467 714.1 467.9 714.1 469V476.2C714.1 477.1 713.4 477.9 712.4 477.9C711.6 477.9 710.9 477.3 710.8 476.5L709.8 469.6L708.5 467.2L700.5 471.4C700.5 471.4 689.5 451.4 696.7 434.5C700.8 424.8 710.9 422.1 715.5 421.8C717 421.7 718.4 420.9 719.3 419.7C721.4 416.6 726.4 411.4 736.6 412.6C744.4 413.5 748.5 418 750.4 421.7C751.6 423.8 754.2 424.8 756.5 424C759.9 422.8 764.8 422.2 770.1 426C780.5 433.2 774.9 451.3 763.5 452.2Z" fill="#21252B" style="baseline-shift: 0px; fill: rgb(33, 37, 43); paint-order: normal; text-decoration: none solid rgb(61, 61, 61);"></path>
<path opacity="0.15" d="M706.6 488.4C706.6 488.4 709.6 488.9 711.3 487.7L705.6 495.3L706.6 488.4Z" fill="black" style="baseline-shift: 0px; fill: rgb(0, 0, 0); opacity: 0.15; paint-order: normal; text-decoration: none solid rgb(61, 61, 61);"></path>
<path d="M709.8 469.5C709.8 469.5 707.9 462.6 700.7 465.2C692.5 468.1 692.7 486.4 706.2 488.4C713.3 489.5 712.1 485.3 711.3 479.7C709.8 469.5 709.8 469.5 709.8 469.5Z" fill="#FC9D9D" style="baseline-shift: 0px; fill: rgb(252, 157, 157); paint-order: normal; text-decoration: none solid rgb(61, 61, 61);"></path>
<path opacity="0.3" d="M700 469.8C701.4 469 702.8 468.7 704 469.1C705.2 469.5 706.2 470.4 706.9 471.8C707.6 473.3 708 475 707.9 476.8V478.4C707.9 478.9 707.5 479.2 707 479.2C706.5 479.2 706.2 478.8 706.2 478.3V476.7C706.3 476.3 706.1 473.9 705.4 472.5C704.9 471.5 704.2 470.8 703.5 470.6C702.8 470.4 701.9 470.6 700.8 471.2C700.4 471.4 699.9 471.3 699.7 470.9C699.5 470.6 699.6 470.1 700 469.8Z" fill="black" style="baseline-shift: 0px; fill: rgb(0, 0, 0); opacity: 0.3; paint-order: normal; text-decoration: none solid rgb(61, 61, 61);"></path>
<path d="M763.6 453.701L759.8 453.801C759.4 453.801 759 453.501 759 453.101C759 452.701 759.3 452.301 759.7 452.301L763.5 452.201C764 452.201 764.5 452.101 764.9 452.001C765.8 451.801 767.6 451.201 769.4 450.201C769.8 450.001 770.2 450.101 770.4 450.501C770.6 450.901 770.5 451.301 770.1 451.501C768.2 452.601 766.2 453.201 765.2 453.401C764.8 453.601 764.2 453.701 763.6 453.701Z" fill="#FC9D9D" style="baseline-shift: 0px; fill: rgb(252, 157, 157); paint-order: normal; text-decoration: none solid rgb(61, 61, 61);"></path>
<path opacity="0.15" d="M754.1 529.5L753.7 517.9C750.4 520.9 741.2 524.8 731.5 521.7C731.5 521.7 731.4 521.6 731.5 521.7C725.5 519.7 721.6 516 719.3 512.8C719.1 512.5 718.6 512.4 718.3 512.6C718 512.8 717.9 513.3 718.1 513.6C721 517.5 726.1 522.2 734.3 523.9C744 531.5 754.1 529.5 754.1 529.5Z" fill="black" style="baseline-shift: 0px; fill: rgb(0, 0, 0); opacity: 0.15; paint-order: normal; text-decoration: none solid rgb(61, 61, 61);"></path>
<g opacity="0.3" style="baseline-shift: 0px; opacity: 0.3; paint-order: normal; text-decoration: none solid rgb(61, 61, 61);">
<path opacity="0.3" d="M744.5 508.4H744.4C741.5 508.4 740 508.4 740 508.4C739.5 508.4 739 508 739 507.4C739 506.9 739.4 506.4 740 506.4C740 506.4 741.5 506.4 744.4 506.4C744.9 506.4 745.4 506.8 745.4 507.4C745.3 507.9 744.9 508.3 744.5 508.4Z" fill="black" style="baseline-shift: 0px; fill: rgb(0, 0, 0); opacity: 0.3; paint-order: normal; text-decoration: none solid rgb(61, 61, 61);"></path>
</g>
<g opacity="0.3" style="baseline-shift: 0px; opacity: 0.3; paint-order: normal; text-decoration: none solid rgb(61, 61, 61);">
<path opacity="0.3" d="M746.3 504.3C738.2 504.9 734.9 500.3 733.8 498C733.6 497.5 733.8 497 734.2 496.8C734.7 496.6 735.2 496.8 735.4 497.2C736.5 499.4 740.1 504.3 750 501.8C750.5 501.7 751 502 751.1 502.5C751.2 503 750.9 503.5 750.4 503.6C749 504 747.6 504.2 746.3 504.3Z" fill="black" style="baseline-shift: 0px; fill: rgb(0, 0, 0); opacity: 0.3; paint-order: normal; text-decoration: none solid rgb(61, 61, 61);"></path>
</g>
<path d="M737 484.3C738.602 484.3 739.9 483.002 739.9 481.4C739.9 479.799 738.602 478.5 737 478.5C735.398 478.5 734.1 479.799 734.1 481.4C734.1 483.002 735.398 484.3 737 484.3Z" fill="#21252B" style="baseline-shift: 0px; fill: rgb(33, 37, 43); paint-order: normal; text-decoration: none solid rgb(61, 61, 61);"></path>
<path d="M738.4 482.701C738.732 482.701 739 482.432 739 482.1C739 481.769 738.732 481.5 738.4 481.5C738.069 481.5 737.8 481.769 737.8 482.1C737.8 482.432 738.069 482.701 738.4 482.701Z" fill="white" style="baseline-shift: 0px; fill: rgb(255, 255, 255); paint-order: normal; text-decoration: none solid rgb(61, 61, 61);"></path>
<path d="M760.2 486.1C761.801 486.1 763.1 484.802 763.1 483.2C763.1 481.599 761.801 480.3 760.2 480.3C758.598 480.3 757.3 481.599 757.3 483.2C757.3 484.802 758.598 486.1 760.2 486.1Z" fill="#21252B" style="baseline-shift: 0px; fill: rgb(33, 37, 43); paint-order: normal; text-decoration: none solid rgb(61, 61, 61);"></path>
<path d="M761.6 484.4C761.931 484.4 762.2 484.132 762.2 483.8C762.2 483.469 761.931 483.2 761.6 483.2C761.269 483.2 761 483.469 761 483.8C761 484.132 761.269 484.4 761.6 484.4Z" fill="white" style="baseline-shift: 0px; fill: rgb(255, 255, 255); paint-order: normal; text-decoration: none solid rgb(61, 61, 61);"></path>
<g opacity="0.3" style="baseline-shift: 0px; opacity: 0.3; paint-order: normal; text-decoration: none solid rgb(61, 61, 61);">
<path opacity="0.3" d="M749 497.301H745C744.5 497.301 744.1 496.901 744.1 496.401C744.1 495.901 744.5 495.501 745 495.501H749C750 495.501 750.8 494.701 750.8 493.701C750.8 492.701 750 491.901 749 491.901C748.5 491.901 748.1 491.501 748.1 491.001C748.1 490.501 748.5 490.101 749 490.101C750.9 490.101 752.5 491.701 752.5 493.601C752.5 495.701 751 497.301 749 497.301Z" fill="black" style="baseline-shift: 0px; fill: rgb(0, 0, 0); opacity: 0.3; paint-order: normal; text-decoration: none solid rgb(61, 61, 61);"></path>
</g>
<path d="M769.2 476.1L756.4 475.2L754.7 475.1L743.5 474.3H743.4L729 473.3C726.7 473.1 724.6 474.9 724.5 477.2L724.3 480.5C723.9 486.8 728.6 492.4 735 492.8C741.3 493.2 746.9 488.5 747.3 482.1L747.5 478.8C747.6 477.8 747.3 476.9 746.8 476.2L751.3 476.5C750.7 477.2 750.3 478 750.2 479L750 482.3C749.6 488.6 754.3 494.2 760.7 494.6C767 495 772.6 490.3 773 483.9L773.2 480.6C773.3 478.4 771.5 476.3 769.2 476.1ZM745.7 478.8L745.5 482.1C745.1 487.5 740.4 491.6 735 491.2C729.6 490.8 725.5 486.1 725.9 480.7L726.1 477.4C726.2 476 727.4 474.9 728.8 475L743.2 476H743.3C744.7 476.1 745.8 477.4 745.7 478.8ZM771.2 483.8C770.8 489.2 766.1 493.3 760.7 492.9C755.3 492.5 751.2 487.8 751.6 482.4L751.8 479.1C751.9 477.7 753.1 476.6 754.5 476.7L756.2 476.8L769 477.7C770.4 477.8 771.5 479 771.4 480.4L771.2 483.8Z" fill="#21252B" style="baseline-shift: 0px; fill: rgb(33, 37, 43); paint-order: normal; text-decoration: none solid rgb(61, 61, 61);"></path>
<path d="M611.1 1006.8H686.1V688.3C686.1 682 681 676.9 674.7 676.9H622.5C616.2 676.9 611.1 682 611.1 688.3V1006.8Z" fill="#B2B6BB" style="baseline-shift: 0px; fill: rgb(178, 182, 187); paint-order: normal; text-decoration: none solid rgb(61, 61, 61);"></path>
</svg>